<svg width="30" height="30" viewBox="0 0 30 30" fill="none" xmlns="http://www.w3.org/2000/svg">
<path d="M15 0C6.72911 0 0 6.72911 0 15C0 23.2709 6.72911 30 15 30C23.2709 30 30 23.2709 30 15C30 6.72911 23.2709 0 15 0ZM15 28.9286C7.31946 28.9286 1.07143 22.68 1.07143 15C1.07143 7.32 7.31946 1.07143 15 1.07143C22.6805 1.07143 28.9286 7.32 28.9286 15C28.9286 22.68 22.6805 28.9286 15 28.9286Z" fill="white"/>
<path d="M15.3786 4.97839C15.1691 4.76892 14.8305 4.76892 14.6211 4.97839L6.04964 13.5498C5.89643 13.703 5.85036 13.9334 5.93339 14.1337C6.01643 14.3336 6.21197 14.4643 6.42839 14.4643H8.03554V24.1071C8.03554 24.4028 8.275 24.6428 8.57125 24.6428H12.857H17.1427H21.4284C21.7246 24.6428 21.9641 24.4028 21.9641 24.1071V14.4643H23.5713C23.7877 14.4643 23.9838 14.3336 24.0663 14.1337C24.1493 13.9334 24.1032 13.703 23.95 13.5498L15.3786 4.97839ZM13.3927 23.5714V17.6786H16.607V23.5714H13.3927ZM20.8927 23.5714H17.6784V17.1429C17.6784 16.8471 17.4389 16.6071 17.1427 16.6071H12.857C12.5607 16.6071 12.3213 16.8471 12.3213 17.1429V23.5714H9.10696V14.4643H20.8927V23.5714ZM21.4284 13.3929H8.57125H7.72161L14.9998 6.11464L22.278 13.3929H21.4284Z" fill="white"/>
</svg>
