<?xml version="1.0" encoding="UTF-8" standalone="no"?>
<!DOCTYPE svg PUBLIC "-//W3C//DTD SVG 1.1//EN" "http://www.w3.org/Graphics/SVG/1.1/DTD/svg11.dtd">
<svg xmlns="http://www.w3.org/2000/svg" version="1.1" viewBox="0.00 0.00 1579.00 1327.00">
<path fill="#000000" d="
  M 33.75 1326.31
  C 19.16 1326.31 6.69 1317.86 2.57 1304.24
  Q 1.00 1299.05 1.00 1285.62
  Q 1.00 657.81 1.00 30.00
  Q 1.00 28.03 1.87 24.57
  C 4.57 13.90 12.04 5.80 22.24 2.18
  Q 25.58 1.00 30.43 1.00
  Q 785.24 1.00 1540.05 1.00
  Q 1551.41 1.00 1556.28 2.50
  C 1569.27 6.50 1578.27 18.91 1578.27 32.75
  Q 1578.28 664.88 1578.28 1297.00
  C 1578.28 1302.00 1575.43 1308.79 1572.34 1313.02
  Q 1562.64 1326.32 1544.50 1326.32
  Q 789.12 1326.31 33.75 1326.31
  Z
  M 1515.25 65.00
  A 0.92 0.92 0.0 0 0 1514.33 64.08
  L 64.95 64.08
  A 0.92 0.92 0.0 0 0 64.03 65.00
  L 64.03 1262.32
  A 0.92 0.92 0.0 0 0 64.95 1263.24
  L 1514.33 1263.24
  A 0.92 0.92 0.0 0 0 1515.25 1262.32
  L 1515.25 65.00
  Z"
/>
<path fill="#000000" d="
  M 1201.36 371.32
  Q 1201.91 371.52 1202.25 371.04
  Q 1237.15 321.79 1272.09 272.58
  C 1283.32 256.76 1306.19 254.45 1319.96 268.37
  C 1330.64 279.16 1332.50 295.92 1323.66 308.66
  Q 1279.56 372.17 1235.26 435.55
  Q 1225.81 449.07 1209.75 449.44
  C 1200.38 449.65 1193.96 445.87 1185.94 439.69
  Q 1146.37 409.20 1106.81 378.70
  Q 1104.59 376.99 1102.22 373.89
  C 1083.24 349.05 1108.31 313.64 1138.16 324.79
  Q 1142.91 326.57 1151.66 333.29
  Q 1176.21 352.14 1200.78 370.96
  Q 1201.14 371.24 1201.36 371.32
  Z"
/>
<path fill="#000000" d="
  M 915.22 379.69
  L 285.54 379.69
  A 0.65 0.65 0.0 0 1 284.89 379.04
  L 284.93 317.18
  A 0.65 0.65 0.0 0 1 285.58 316.53
  L 915.19 316.53
  A 0.65 0.65 0.0 0 1 915.84 317.18
  L 915.87 379.04
  A 0.65 0.65 0.0 0 1 915.22 379.69
  Z"
/>
<path fill="#000000" d="
  M 1201.90 686.76
  A 0.88 0.88 0.0 0 0 1202.35 686.43
  Q 1235.53 639.64 1268.78 592.84
  Q 1274.59 584.64 1277.69 582.02
  C 1288.50 572.86 1303.75 572.47 1315.46 580.23
  C 1327.10 587.93 1332.44 603.56 1327.45 616.93
  Q 1326.01 620.79 1320.88 628.19
  Q 1279.90 687.30 1238.77 746.30
  Q 1232.44 755.38 1228.44 758.53
  C 1217.10 767.44 1200.92 766.88 1189.33 757.92
  Q 1148.15 726.11 1106.92 694.36
  Q 1104.63 692.60 1102.23 689.46
  C 1091.38 675.26 1094.24 654.38 1109.11 644.06
  C 1120.38 636.23 1135.69 636.57 1146.56 644.92
  Q 1173.71 665.78 1200.88 686.60
  Q 1201.32 686.93 1201.90 686.76
  Z"
/>
<path fill="#000000" d="
  M 915.10 695.24
  L 285.62 695.24
  A 0.72 0.72 0.0 0 1 284.90 694.52
  L 284.93 632.81
  A 0.72 0.72 0.0 0 1 285.65 632.09
  L 915.18 632.09
  A 0.72 0.72 0.0 0 1 915.90 632.81
  L 915.82 694.52
  A 0.72 0.72 0.0 0 1 915.10 695.24
  Z"
/>
<path fill="#000000" d="
  M 1201.31 1002.39
  A 1.14 1.11 -67.3 0 0 1202.40 1001.93
  Q 1237.84 951.95 1273.29 902.05
  Q 1274.92 899.75 1278.05 897.26
  C 1306.45 874.72 1344.31 910.03 1323.40 940.15
  Q 1279.45 1003.45 1235.42 1066.68
  C 1227.14 1078.57 1212.15 1083.68 1198.52 1078.58
  Q 1193.67 1076.77 1184.33 1069.57
  Q 1148.69 1042.13 1113.07 1014.64
  C 1103.34 1007.13 1096.89 1000.76 1095.77 989.25
  C 1093.49 965.78 1116.05 947.47 1138.51 956.10
  Q 1143.15 957.88 1150.68 963.66
  Q 1175.55 982.74 1200.34 1001.91
  Q 1200.85 1002.31 1201.31 1002.39
  Z"
/>
<path fill="#000000" d="
  M 915.41 1010.77
  L 285.44 1010.77
  A 0.54 0.54 0.0 0 1 284.90 1010.23
  L 284.93 948.16
  A 0.54 0.54 0.0 0 1 285.47 947.62
  L 915.26 947.62
  A 0.54 0.54 0.0 0 1 915.80 948.16
  L 915.95 1010.23
  A 0.54 0.54 0.0 0 1 915.41 1010.77
  Z"
/>
</svg>
