<svg width="28" height="29" viewBox="0 0 28 29" fill="none" xmlns="http://www.w3.org/2000/svg">
<path d="M15.0958 2.46221C15.0927 3.65537 15.0925 4.84961 15.0952 6.04492C15.0956 6.23438 15.1066 6.37422 15.1283 6.46445C15.2317 6.89717 15.5874 7.24668 16.0137 7.34658C16.1176 7.371 16.3119 7.38311 16.5967 7.38291C17.1145 7.38272 17.6314 7.38272 18.1477 7.38291C18.1584 7.38291 18.16 7.38672 18.1523 7.39434L16.2771 9.24619C16.2702 9.25303 16.2618 9.25645 16.2519 9.25645C14.9909 9.26025 13.2325 8.7792 13.2311 7.17871C13.2295 5.38184 13.2291 3.58564 13.2299 1.79014C13.2299 1.78765 13.2289 1.78527 13.2271 1.78351C13.2254 1.78175 13.223 1.78076 13.2205 1.78076C9.90273 1.78057 6.58496 1.78066 3.26719 1.78105C3.02129 1.78105 2.84629 1.79492 2.74219 1.82266C2.325 1.93369 1.98457 2.28115 1.88672 2.69863C1.86367 2.79766 1.85215 2.99219 1.85215 3.28223C1.85215 10.8506 1.85156 18.4189 1.85039 25.9873C1.85039 26.5396 2.20752 27.0235 2.74307 27.1671C2.85107 27.196 3.02559 27.2104 3.2666 27.2104C8.72559 27.2104 14.1846 27.2099 19.6436 27.2087C20.1911 27.2087 20.6921 26.8422 20.8213 26.3063C20.8467 26.2003 20.8594 26.0061 20.8594 25.7236C20.8594 23.1941 20.8594 20.6631 20.8594 18.1305C20.8594 18.122 20.8628 18.1139 20.8687 18.1079L22.9682 15.9965C22.9768 15.9879 22.9811 15.9896 22.9811 16.0018C22.9807 19.418 22.9807 22.8367 22.9811 26.258C22.9811 26.5439 22.9753 26.7392 22.9638 26.8437C22.8419 27.9364 21.9832 28.8194 20.8878 28.9592C20.7763 28.9734 20.5812 28.9806 20.3027 28.9806C14.4311 28.9804 8.55937 28.9804 2.6877 28.9806C2.41055 28.9806 2.21553 28.9735 2.10264 28.9595C1.0585 28.8285 0.211231 28.022 0.0336915 26.9813C0.0114259 26.8503 0.000292969 26.6557 0.000292969 26.3975C-9.76563e-05 18.458 -9.76563e-05 10.5185 0.000292969 2.57881C0.000292969 2.32236 0.0117188 2.12783 0.0345704 1.99521C0.205957 1.00029 0.991992 0.210449 1.98691 0.0355469C2.11992 0.0121094 2.31455 0.00039063 2.5708 0.00039063C6.72803 4.96584e-09 10.8859 -9.7658e-05 15.0445 9.76545e-05C15.0541 9.47682e-05 15.0635 0.00374649 15.0709 0.0103516L20.5793 4.94658C20.5807 4.94778 20.5818 4.94924 20.5826 4.95088C20.5833 4.95252 20.5838 4.95431 20.5838 4.95612C20.5839 4.95794 20.5835 4.95975 20.5829 4.96143C20.5822 4.96312 20.5812 4.96464 20.5799 4.96592L19.3022 6.24356C19.2935 6.25234 19.2844 6.25254 19.275 6.24414L15.1049 2.4584C15.1041 2.45772 15.1031 2.45726 15.102 2.4571C15.101 2.45693 15.0999 2.45706 15.099 2.45746C15.098 2.45786 15.0972 2.45852 15.0966 2.45936C15.0961 2.4602 15.0958 2.46119 15.0958 2.46221Z" fill="white"/>
<path d="M27.4824 9.0989C27.3298 9.48356 27.1203 9.73435 26.7966 10.0584C23.7446 13.114 20.6917 16.1709 17.6378 19.2289C17.6289 19.2378 17.6183 19.2446 17.6067 19.2488L10.8178 21.7686C10.8166 21.7691 10.8153 21.7692 10.814 21.7689C10.8127 21.7687 10.8116 21.7681 10.8106 21.7672C10.8097 21.7663 10.8091 21.7651 10.8088 21.7639C10.8085 21.7626 10.8085 21.7613 10.809 21.7601L13.3637 15.0066C13.3685 14.9935 13.3762 14.9815 13.3862 14.9715C16.4233 11.9343 19.4625 8.89519 22.5037 5.85397C22.6996 5.65808 22.8426 5.52526 22.9326 5.45554C23.7567 4.81657 24.9424 4.78522 25.7964 5.40339C25.8973 5.47644 26.0428 5.60622 26.2326 5.79274C26.4859 6.04138 26.7384 6.29069 26.9899 6.54069C27.6465 7.19284 27.8225 8.24167 27.4824 9.0989ZM23.1878 7.60095L24.9846 9.41032C24.986 9.41185 24.9878 9.41307 24.9897 9.41391C24.9917 9.41475 24.9938 9.41519 24.9959 9.41522C24.998 9.41525 25.0001 9.41486 25.0021 9.41406C25.0041 9.41327 25.0059 9.4121 25.0074 9.41062L25.6071 8.81501C25.7742 8.64906 25.8676 8.42266 25.8668 8.1856C25.866 7.94853 25.7712 7.72021 25.603 7.55085L25.0516 6.99567C24.8835 6.82634 24.6558 6.72985 24.4187 6.72743C24.1816 6.72501 23.9546 6.81686 23.7875 6.98278L23.1881 7.5781C23.1865 7.57957 23.1853 7.58134 23.1845 7.58329C23.1836 7.58524 23.1832 7.58734 23.1832 7.58946C23.1831 7.59158 23.1835 7.59369 23.1843 7.59566C23.1851 7.59763 23.1863 7.59943 23.1878 7.60095ZM22.4047 8.3769C22.4033 8.37549 22.4016 8.37437 22.3997 8.3736C22.3979 8.37284 22.3959 8.37244 22.3939 8.37244C22.3919 8.37244 22.3899 8.37284 22.3881 8.3736C22.3862 8.37437 22.3845 8.37549 22.3831 8.3769L15.3384 15.4216C15.337 15.423 15.3359 15.4247 15.3351 15.4265C15.3344 15.4284 15.334 15.4304 15.334 15.4324C15.334 15.4344 15.3344 15.4363 15.3351 15.4382C15.3359 15.44 15.337 15.4417 15.3384 15.4431L17.1453 17.25C17.1467 17.2514 17.1484 17.2525 17.1502 17.2533C17.1521 17.2541 17.1541 17.2545 17.1561 17.2545C17.1581 17.2545 17.16 17.2541 17.1619 17.2533C17.1637 17.2525 17.1654 17.2514 17.1668 17.25L24.2115 10.2053C24.2129 10.2039 24.2141 10.2022 24.2148 10.2004C24.2156 10.1985 24.216 10.1965 24.216 10.1945C24.216 10.1925 24.2156 10.1905 24.2148 10.1887C24.2141 10.1869 24.2129 10.1852 24.2115 10.1838L22.4047 8.3769ZM14.2721 16.53C13.9138 17.4773 13.5563 18.4237 13.1999 19.3692C13.1995 19.3704 13.1994 19.3717 13.1997 19.3729C13.2 19.3741 13.2006 19.3752 13.2015 19.3761C13.2024 19.3769 13.2035 19.3776 13.2047 19.3779C13.2059 19.3781 13.2072 19.3781 13.2084 19.3777C14.1553 19.0258 15.1018 18.6737 16.0481 18.3216C16.1513 18.2832 16.206 18.2134 16.2787 18.1376C16.2814 18.1347 16.2829 18.131 16.2829 18.127C16.2829 18.1231 16.2814 18.1193 16.2787 18.1165L14.4728 16.3109C14.4711 16.3092 14.4691 16.3079 14.4669 16.307C14.4647 16.3061 14.4624 16.3056 14.4601 16.3056C14.4577 16.3056 14.4554 16.3061 14.4533 16.307C14.4511 16.3079 14.4492 16.3092 14.4476 16.3109C14.3788 16.3824 14.3091 16.4322 14.2721 16.53Z" fill="white"/>
<path d="M11.5754 11.7061H4.22012C4.21235 11.7061 4.20605 11.7124 4.20605 11.7201V13.3807C4.20605 13.3884 4.21235 13.3947 4.22012 13.3947H11.5754C11.5832 13.3947 11.5895 13.3884 11.5895 13.3807V11.7201C11.5895 11.7124 11.5832 11.7061 11.5754 11.7061Z" fill="white"/>
<path d="M10.8317 18.0114H4.21738C4.21443 18.0114 4.2116 18.0103 4.20951 18.0082C4.20742 18.0061 4.20625 18.0032 4.20625 18.0003L4.20508 16.3356C4.20508 16.3327 4.20625 16.3299 4.20834 16.3278C4.21043 16.3257 4.21326 16.3245 4.21621 16.3245L11.4678 16.3242C11.4696 16.3242 11.4714 16.3247 11.473 16.3255C11.4745 16.3264 11.4759 16.3276 11.4769 16.3291C11.4779 16.3306 11.4786 16.3324 11.4787 16.3342C11.4789 16.336 11.4787 16.3378 11.478 16.3395L10.842 18.0044C10.8412 18.0065 10.8398 18.0082 10.8379 18.0095C10.8361 18.0107 10.834 18.0114 10.8317 18.0114Z" fill="white"/>
<path d="M11.6345 22.6361L17.4301 20.5458C17.4309 20.5454 17.4319 20.5453 17.4329 20.5455C17.4338 20.5456 17.4347 20.5459 17.4355 20.5465C17.4363 20.547 17.4369 20.5478 17.4373 20.5486C17.4378 20.5495 17.438 20.5504 17.438 20.5513V22.6355C17.438 22.6467 17.4324 22.6522 17.4213 22.6522L11.6375 22.6519C11.6062 22.6519 11.6052 22.6467 11.6345 22.6361Z" fill="white"/>
<path d="M9.49619 22.6175H4.21836C4.21533 22.6175 4.21242 22.6163 4.21028 22.6141C4.20814 22.612 4.20693 22.6091 4.20693 22.6061L4.20605 20.9396C4.20605 20.9381 4.20635 20.9367 4.20692 20.9353C4.2075 20.9339 4.20834 20.9326 4.2094 20.9316C4.21046 20.9305 4.21172 20.9297 4.21311 20.9291C4.21449 20.9285 4.21598 20.9282 4.21748 20.9282L10.1091 20.9285C10.1109 20.9285 10.1127 20.9289 10.1144 20.9298C10.116 20.9306 10.1174 20.9318 10.1185 20.9333C10.1195 20.9348 10.1202 20.9365 10.1205 20.9384C10.1207 20.9402 10.1205 20.942 10.1199 20.9438L9.50674 22.6099C9.50596 22.6121 9.50454 22.614 9.50266 22.6153C9.50077 22.6167 9.49852 22.6174 9.49619 22.6175Z" fill="white"/>
</svg>
