<?xml version="1.0" encoding="UTF-8" standalone="no"?>
<!DOCTYPE svg PUBLIC "-//W3C//DTD SVG 1.1//EN" "http://www.w3.org/Graphics/SVG/1.1/DTD/svg11.dtd">
<svg xmlns="http://www.w3.org/2000/svg" version="1.1" viewBox="0.00 0.00 980.00 904.00">
<g stroke-width="2.00" fill="none" stroke-linecap="butt">
<path stroke="#565555" vector-effect="non-scaling-stroke" d="
  M 417.59 0.66
  L 382.43 0.73"
/>
<path stroke="#565555" vector-effect="non-scaling-stroke" d="
  M 422.61 1.08
  C 429.25 1.71 435.98 1.64 442.43 2.39
  Q 446.85 2.91 451.28 3.33
  C 493.61 7.40 534.89 16.36 574.85 30.94
  C 683.56 70.62 781.24 154.67 794.88 276.26
  C 795.37 280.56 795.24 286.22 795.95 291.21"
/>
<path stroke="#565555" vector-effect="non-scaling-stroke" d="
  M 795.89 311.27
  Q 795.12 329.49 793.03 343.75
  C 782.15 417.91 741.99 481.68 682.76 527.04
  C 608.02 584.28 512.45 609.86 419.49 611.74"
/>
<path stroke="#565555" vector-effect="non-scaling-stroke" d="
  M 404.84 612.37
  C 390.31 611.90 374.87 612.54 361.31 611.39
  Q 351.81 610.59 342.49 609.14
  A 1.60 1.58 25.2 0 0 341.07 609.64
  Q 335.80 615.54 329.61 620.86
  C 297.37 648.57 261.45 672.82 224.42 693.63
  C 194.80 710.28 161.40 726.07 127.49 731.04"
/>
<path stroke="#565555" vector-effect="non-scaling-stroke" d="
  M 122.84 731.02
  C 110.03 729.02 100.23 717.80 102.61 704.85
  Q 103.32 700.98 107.24 694.30
  C 124.32 665.16 140.60 635.23 150.39 602.73
  Q 154.11 590.38 155.55 578.76
  Q 156.03 574.87 155.64 569.93"
/>
<path stroke="#565555" vector-effect="non-scaling-stroke" d="
  M 156.13 566.83
  Q 156.60 565.97 155.46 565.37
  C 101.85 537.52 59.88 493.98 33.01 439.96
  Q 15.43 404.62 7.25 366.00
  Q 2.57 343.92 1.76 332.00
  C 1.44 327.36 0.85 323.17 0.70 319.00
  Q 0.56 314.71 0.00 310.43"
/>
<path stroke="#565555" vector-effect="non-scaling-stroke" d="
  M 0.00 288.96
  Q 0.45 286.23 0.59 283.49
  Q 0.84 278.89 0.93 278.02
  C 14.84 140.56 140.48 51.27 263.78 18.57
  Q 319.50 3.80 377.22 0.98"
/>
<path stroke="#565555" vector-effect="non-scaling-stroke" d="
  M 387.26 62.10
  Q 326.39 63.09 267.99 80.20
  C 204.27 98.87 141.69 133.62 100.60 187.08
  C 74.92 220.50 60.34 259.98 61.09 302.75
  C 62.48 382.42 100.33 460.61 169.21 503.32
  Q 175.42 507.17 186.72 512.98
  Q 201.32 520.49 215.60 527.77
  A 2.93 2.93 0.0 0 1 217.19 530.62
  Q 215.75 548.44 214.39 565.97
  C 213.74 574.34 212.67 581.26 210.87 588.87
  Q 204.48 615.89 195.16 642.06
  Q 194.94 642.67 194.96 642.97
  A 0.50 0.50 0.0 0 0 195.73 643.35
  Q 234.98 617.77 269.36 586.85
  C 273.52 583.10 277.49 578.95 281.66 575.52
  Q 299.00 561.28 316.17 546.79
  A 1.37 1.35 -63.8 0 1 317.06 546.48
  C 325.98 546.69 334.94 547.49 343.84 548.15
  Q 350.09 548.61 360.12 549.76
  C 388.64 553.03 417.30 552.62 447.00 550.35
  C 535.33 543.57 626.40 509.22 684.06 439.07
  C 711.57 405.60 728.85 365.69 733.53 322.59
  Q 734.84 310.57 734.95 306.74
  Q 736.47 251.60 708.07 204.67
  C 675.46 150.80 618.79 112.11 561.00 90.30
  Q 489.97 63.51 412.96 62.13"
/>
<path stroke="#565555" vector-effect="non-scaling-stroke" d="
  M 404.98 62.03
  Q 400.27 61.29 395.27 62.09"
/>
<path stroke="#565555" vector-effect="non-scaling-stroke" d="
  M 239.59 378.99
  Q 266.45 376.78 283.73 359.23
  C 297.23 345.52 304.77 324.99 302.35 305.60
  C 298.80 277.14 277.93 254.89 250.26 248.86
  C 218.65 241.97 186.29 256.97 172.89 286.62
  C 156.32 323.27 176.77 364.15 214.32 376.02
  C 219.32 377.61 225.01 378.25 230.48 379.14"
/>
<path stroke="#565555" vector-effect="non-scaling-stroke" d="
  M 348.06 315.45
  C 348.67 318.20 348.48 321.08 349.03 323.65
  C 349.82 327.34 350.47 331.25 351.77 334.67
  Q 362.59 363.08 389.76 374.03
  C 431.51 390.87 477.79 360.51 479.45 315.37
  C 480.21 294.94 470.74 274.41 454.69 261.83
  C 411.85 228.26 352.22 257.00 348.19 309.85"
/>
<path stroke="#565555" vector-effect="non-scaling-stroke" d="
  M 655.22 313.13
  A 65.58 65.58 0.0 0 0 589.64 247.55
  A 65.58 65.58 0.0 0 0 524.06 313.13
  A 65.58 65.58 0.0 0 0 589.64 378.71
  A 65.58 65.58 0.0 0 0 655.22 313.13"
/>
<path stroke="#565555" vector-effect="non-scaling-stroke" d="
  M 980.00 536.78
  Q 979.26 530.73 979.12 524.63
  C 979.05 521.38 978.42 517.83 978.14 514.13
  Q 977.13 500.44 971.29 479.26
  C 960.32 439.52 937.72 406.45 906.18 380.08
  Q 889.05 365.76 868.17 353.28
  Q 867.68 352.99 867.40 353.04
  A 1.04 1.04 0.0 0 0 866.54 353.96
  C 864.08 378.73 858.46 403.81 848.50 426.65
  Q 840.92 444.03 832.37 459.85
  C 800.36 519.09 752.54 568.36 694.95 603.16
  C 614.31 651.89 519.18 673.55 425.38 676.97"
/>
<path stroke="#565555" vector-effect="non-scaling-stroke" d="
  M 980.00 555.10
  C 979.30 561.07 979.21 567.27 978.45 572.93
  C 977.69 578.56 977.28 584.29 976.07 589.84
  Q 975.40 592.91 974.76 596.00
  Q 963.52 649.83 926.51 690.28
  C 903.88 715.02 877.08 734.10 847.27 749.27
  A 1.53 1.52 -14.4 0 0 846.43 750.68
  C 846.75 762.54 847.85 774.04 850.06 785.99
  Q 857.12 824.03 871.41 860.06
  Q 873.29 864.80 876.85 872.00
  Q 880.19 878.76 880.55 881.87
  C 881.50 890.18 876.36 898.35 868.82 901.69
  C 861.50 904.92 850.84 902.53 843.07 900.25
  C 810.01 890.55 779.74 871.86 752.41 850.82
  Q 722.31 827.64 700.56 805.94
  Q 695.56 800.96 691.35 795.97
  A 2.52 2.51 -24.3 0 0 689.03 795.10
  C 677.21 796.95 666.75 797.51 653.63 797.42
  Q 633.12 797.27 612.61 797.14
  Q 612.08 797.13 611.95 797.42"
/>
<path stroke="#565555" vector-effect="non-scaling-stroke" d="
  M 610.28 797.35
  Q 609.90 796.81 609.25 796.77
  C 510.90 791.46 415.55 755.03 350.87 678.13
  Q 350.06 677.17 350.16 676.30"
/>
<path stroke="#565555" vector-effect="non-scaling-stroke" d="
  M 351.62 676.21
  Q 358.60 677.16 365.64 676.68"
/>
<path stroke="#565555" vector-effect="non-scaling-stroke" d="
  M 369.74 677.04
  Q 395.25 678.84 420.72 677.03"
/>
</g>
<path fill="#abaaaa" d="
  M 389.37 0.00
  L 410.25 0.00
  L 417.59 0.66
  L 382.43 0.73
  L 389.37 0.00
  Z"
/>
<path fill="#000000" d="
  M 382.43 0.73
  L 417.59 0.66
  Q 420.23 0.47 422.61 1.08
  C 429.25 1.71 435.98 1.64 442.43 2.39
  Q 446.85 2.91 451.28 3.33
  C 493.61 7.40 534.89 16.36 574.85 30.94
  C 683.56 70.62 781.24 154.67 794.88 276.26
  C 795.37 280.56 795.24 286.22 795.95 291.21
  L 795.89 311.27
  Q 795.12 329.49 793.03 343.75
  C 782.15 417.91 741.99 481.68 682.76 527.04
  C 608.02 584.28 512.45 609.86 419.49 611.74
  L 404.84 612.37
  C 390.31 611.90 374.87 612.54 361.31 611.39
  Q 351.81 610.59 342.49 609.14
  A 1.60 1.58 25.2 0 0 341.07 609.64
  Q 335.80 615.54 329.61 620.86
  C 297.37 648.57 261.45 672.82 224.42 693.63
  C 194.80 710.28 161.40 726.07 127.49 731.04
  Q 124.98 731.54 122.84 731.02
  C 110.03 729.02 100.23 717.80 102.61 704.85
  Q 103.32 700.98 107.24 694.30
  C 124.32 665.16 140.60 635.23 150.39 602.73
  Q 154.11 590.38 155.55 578.76
  Q 156.03 574.87 155.64 569.93
  L 156.13 566.83
  Q 156.60 565.97 155.46 565.37
  C 101.85 537.52 59.88 493.98 33.01 439.96
  Q 15.43 404.62 7.25 366.00
  Q 2.57 343.92 1.76 332.00
  C 1.44 327.36 0.85 323.17 0.70 319.00
  Q 0.56 314.71 0.00 310.43
  L 0.00 288.96
  Q 0.45 286.23 0.59 283.49
  Q 0.84 278.89 0.93 278.02
  C 14.84 140.56 140.48 51.27 263.78 18.57
  Q 319.50 3.80 377.22 0.98
  Q 379.84 0.39 382.43 0.73
  Z
  M 395.27 62.09
  L 387.26 62.10
  Q 326.39 63.09 267.99 80.20
  C 204.27 98.87 141.69 133.62 100.60 187.08
  C 74.92 220.50 60.34 259.98 61.09 302.75
  C 62.48 382.42 100.33 460.61 169.21 503.32
  Q 175.42 507.17 186.72 512.98
  Q 201.32 520.49 215.60 527.77
  A 2.93 2.93 0.0 0 1 217.19 530.62
  Q 215.75 548.44 214.39 565.97
  C 213.74 574.34 212.67 581.26 210.87 588.87
  Q 204.48 615.89 195.16 642.06
  Q 194.94 642.67 194.96 642.97
  A 0.50 0.50 0.0 0 0 195.73 643.35
  Q 234.98 617.77 269.36 586.85
  C 273.52 583.10 277.49 578.95 281.66 575.52
  Q 299.00 561.28 316.17 546.79
  A 1.37 1.35 -63.8 0 1 317.06 546.48
  C 325.98 546.69 334.94 547.49 343.84 548.15
  Q 350.09 548.61 360.12 549.76
  C 388.64 553.03 417.30 552.62 447.00 550.35
  C 535.33 543.57 626.40 509.22 684.06 439.07
  C 711.57 405.60 728.85 365.69 733.53 322.59
  Q 734.84 310.57 734.95 306.74
  Q 736.47 251.60 708.07 204.67
  C 675.46 150.80 618.79 112.11 561.00 90.30
  Q 489.97 63.51 412.96 62.13
  L 404.98 62.03
  Q 400.27 61.29 395.27 62.09
  Z"
/>
<path fill="#abaaaa" d="
  M 377.22 0.98
  Q 319.50 3.80 263.78 18.57
  C 140.48 51.27 14.84 140.56 0.93 278.02
  Q 0.84 278.89 0.59 283.49
  Q 0.45 286.23 0.00 288.96
  L 0.00 278.76
  Q 0.66 275.29 1.07 271.74
  C 2.81 256.87 5.65 243.80 9.61 230.70
  C 11.73 223.69 14.44 217.08 17.17 210.32
  Q 25.32 190.21 36.72 171.76
  Q 54.92 142.30 83.12 115.11
  Q 112.67 86.62 151.70 63.84
  Q 159.04 59.56 169.26 54.26
  C 196.33 40.23 221.04 30.31 247.76 22.22
  Q 311.12 3.04 377.22 0.98
  Z"
/>
<path fill="#abaaaa" d="
  M 422.61 1.08
  C 430.02 0.84 435.33 1.58 441.74 2.01
  C 478.99 4.49 517.07 11.34 552.98 22.73
  C 555.93 23.66 561.18 25.12 565.50 26.67
  Q 583.33 33.05 597.31 38.93
  Q 652.98 62.37 698.89 101.23
  C 707.00 108.10 715.25 116.61 723.20 124.61
  Q 728.73 130.19 732.55 134.63
  C 753.06 158.47 769.45 184.80 780.88 214.07
  Q 782.56 218.37 787.80 234.99
  Q 790.99 245.12 793.68 261.76
  Q 796.27 277.78 795.95 291.21
  C 795.24 286.22 795.37 280.56 794.88 276.26
  C 781.24 154.67 683.56 70.62 574.85 30.94
  C 534.89 16.36 493.61 7.40 451.28 3.33
  Q 446.85 2.91 442.43 2.39
  C 435.98 1.64 429.25 1.71 422.61 1.08
  Z"
/>
<path fill="#abaaaa" d="
  M 404.98 62.03
  L 395.27 62.09
  Q 400.27 61.29 404.98 62.03
  Z"
/>
<path fill="#abaaaa" d="
  M 387.26 62.10
  Q 383.07 62.73 372.50 63.16
  Q 350.36 64.06 323.02 68.61
  Q 293.96 73.45 265.76 81.90
  Q 238.68 90.01 212.98 101.73
  Q 163.57 124.27 124.29 161.59
  C 120.68 165.03 117.24 169.04 113.76 172.84
  C 89.50 199.34 71.82 231.40 64.94 266.14
  C 62.11 280.46 61.19 297.39 62.14 311.62
  Q 63.52 332.25 65.44 341.49
  Q 67.05 349.22 68.81 356.91
  Q 73.27 376.50 80.73 395.08
  C 98.21 438.58 128.56 476.42 167.71 501.39
  C 172.46 504.41 177.99 507.33 183.17 510.22
  C 194.29 516.42 205.80 521.88 217.18 527.55
  A 1.49 1.47 11.5 0 1 217.99 528.76
  C 218.16 531.45 217.52 534.62 217.37 536.73
  Q 216.12 553.87 214.70 570.99
  Q 214.21 576.90 213.75 579.25
  Q 209.56 600.51 202.84 621.10
  C 201.37 625.61 199.16 634.49 196.18 640.78
  Q 195.47 642.28 196.86 641.38
  C 220.86 625.79 244.69 608.04 266.13 588.64
  C 271.63 583.67 276.85 578.38 282.48 573.65
  Q 298.70 560.03 315.19 546.74
  Q 316.41 545.76 318.00 545.83
  Q 338.00 546.74 357.89 549.01
  C 379.13 551.44 394.14 551.21 419.88 550.96
  C 453.56 550.64 487.27 545.80 519.84 537.42
  C 615.48 512.81 705.69 447.84 728.85 346.61
  Q 734.61 321.42 733.92 294.00
  C 732.71 245.64 711.56 203.05 679.15 167.84
  Q 671.38 159.39 662.70 151.91
  C 654.88 145.18 646.66 138.26 638.06 132.20
  Q 616.56 117.05 593.08 105.21
  Q 572.45 94.80 544.44 85.39
  C 505.31 72.23 465.41 65.03 423.81 63.12
  Q 418.36 62.87 412.96 62.13
  Q 489.97 63.51 561.00 90.30
  C 618.79 112.11 675.46 150.80 708.07 204.67
  Q 736.47 251.60 734.95 306.74
  Q 734.84 310.57 733.53 322.59
  C 728.85 365.69 711.57 405.60 684.06 439.07
  C 626.40 509.22 535.33 543.57 447.00 550.35
  C 417.30 552.62 388.64 553.03 360.12 549.76
  Q 350.09 548.61 343.84 548.15
  C 334.94 547.49 325.98 546.69 317.06 546.48
  A 1.37 1.35 -63.8 0 0 316.17 546.79
  Q 299.00 561.28 281.66 575.52
  C 277.49 578.95 273.52 583.10 269.36 586.85
  Q 234.98 617.77 195.73 643.35
  A 0.50 0.50 0.0 0 1 194.96 642.97
  Q 194.94 642.67 195.16 642.06
  Q 204.48 615.89 210.87 588.87
  C 212.67 581.26 213.74 574.34 214.39 565.97
  Q 215.75 548.44 217.19 530.62
  A 2.93 2.93 0.0 0 0 215.60 527.77
  Q 201.32 520.49 186.72 512.98
  Q 175.42 507.17 169.21 503.32
  C 100.33 460.61 62.48 382.42 61.09 302.75
  C 60.34 259.98 74.92 220.50 100.60 187.08
  C 141.69 133.62 204.27 98.87 267.99 80.20
  Q 326.39 63.09 387.26 62.10
  Z"
/>
<path fill="#abaaaa" d="
  M 239.59 378.99
  Q 266.45 376.78 283.73 359.23
  C 297.23 345.52 304.77 324.99 302.35 305.60
  C 298.80 277.14 277.93 254.89 250.26 248.86
  C 218.65 241.97 186.29 256.97 172.89 286.62
  C 156.32 323.27 176.77 364.15 214.32 376.02
  C 219.32 377.61 225.01 378.25 230.48 379.14
  C 220.26 379.29 209.63 376.30 200.19 370.95
  C 182.11 360.71 170.17 342.97 167.11 322.25
  Q 166.48 318.01 166.79 309.64
  C 168.03 275.19 196.82 247.25 231.41 247.02
  C 237.02 246.99 242.86 246.72 248.16 247.64
  C 274.60 252.26 294.97 271.49 301.60 297.38
  C 303.50 304.80 303.62 314.37 302.98 321.75
  Q 302.49 327.39 299.61 335.20
  Q 288.33 365.82 257.37 376.33
  Q 248.78 379.25 239.59 378.99
  Z"
/>
<path fill="#abaaaa" d="
  M 348.06 315.45
  C 348.67 318.20 348.48 321.08 349.03 323.65
  C 349.82 327.34 350.47 331.25 351.77 334.67
  Q 362.59 363.08 389.76 374.03
  C 431.51 390.87 477.79 360.51 479.45 315.37
  C 480.21 294.94 470.74 274.41 454.69 261.83
  C 411.85 228.26 352.22 257.00 348.19 309.85
  Q 347.74 306.36 348.00 304.50
  Q 349.44 294.28 351.09 290.84
  C 352.67 287.56 353.97 283.78 355.63 280.90
  C 366.18 262.51 383.94 250.38 404.99 247.25
  C 410.65 246.41 420.62 246.67 426.94 247.95
  C 470.63 256.78 493.68 305.58 472.30 344.77
  C 461.35 364.84 439.99 378.64 416.83 379.20
  C 407.70 379.42 400.14 378.79 391.65 375.58
  C 382.80 372.25 376.39 368.53 369.58 362.69
  C 366.07 359.69 363.14 355.86 360.07 352.19
  Q 355.65 346.89 351.24 335.27
  Q 347.61 325.68 348.06 315.45
  Z"
/>
<path fill="#abaaaa" d="
  M 656.08 313.09
  A 66.41 66.41 0.0 0 1 589.67 379.50
  A 66.41 66.41 0.0 0 1 523.26 313.09
  A 66.41 66.41 0.0 0 1 589.67 246.68
  A 66.41 66.41 0.0 0 1 656.08 313.09
  Z
  M 655.22 313.13
  A 65.58 65.58 0.0 0 0 589.64 247.55
  A 65.58 65.58 0.0 0 0 524.06 313.13
  A 65.58 65.58 0.0 0 0 589.64 378.71
  A 65.58 65.58 0.0 0 0 655.22 313.13
  Z"
/>
<path fill="#000000" d="
  M 239.59 378.99
  L 230.48 379.14
  C 225.01 378.25 219.32 377.61 214.32 376.02
  C 176.77 364.15 156.32 323.27 172.89 286.62
  C 186.29 256.97 218.65 241.97 250.26 248.86
  C 277.93 254.89 298.80 277.14 302.35 305.60
  C 304.77 324.99 297.23 345.52 283.73 359.23
  Q 266.45 376.78 239.59 378.99
  Z"
/>
<path fill="#000000" d="
  M 348.06 315.45
  L 348.19 309.85
  C 352.22 257.00 411.85 228.26 454.69 261.83
  C 470.74 274.41 480.21 294.94 479.45 315.37
  C 477.79 360.51 431.51 390.87 389.76 374.03
  Q 362.59 363.08 351.77 334.67
  C 350.47 331.25 349.82 327.34 349.03 323.65
  C 348.48 321.08 348.67 318.20 348.06 315.45
  Z"
/>
<circle fill="#000000" cx="589.64" cy="313.13" r="65.58"/>
<path fill="#abaaaa" d="
  M 0.00 310.43
  Q 0.56 314.71 0.70 319.00
  C 0.85 323.17 1.44 327.36 1.76 332.00
  Q 2.57 343.92 7.25 366.00
  Q 15.43 404.62 33.01 439.96
  C 59.88 493.98 101.85 537.52 155.46 565.37
  Q 156.60 565.97 156.13 566.83
  C 150.87 563.53 144.23 560.17 139.98 557.63
  Q 106.27 537.56 79.51 508.75
  Q 56.53 484.01 40.08 454.51
  Q 36.84 448.71 33.64 442.88
  Q 30.65 437.43 23.42 420.16
  Q 15.92 402.23 11.40 385.87
  Q 8.72 376.15 5.35 360.92
  Q 3.15 351.00 0.00 322.11
  L 0.00 310.43
  Z"
/>
<path fill="#abaaaa" d="
  M 795.89 311.27
  Q 796.23 319.53 795.95 323.25
  C 792.79 365.40 780.95 406.21 759.37 442.73
  C 730.73 491.21 687.91 529.80 638.59 557.11
  C 604.63 575.90 564.62 590.84 525.75 599.56
  Q 482.59 609.26 436.99 611.72
  Q 427.27 612.24 419.49 611.74
  C 512.45 609.86 608.02 584.28 682.76 527.04
  C 741.99 481.68 782.15 417.91 793.03 343.75
  Q 795.12 329.49 795.89 311.27
  Z"
/>
<path fill="#abaaaa" d="
  M 980.00 524.63
  L 980.00 536.78
  Q 979.26 530.73 979.12 524.63
  C 979.05 521.38 978.42 517.83 978.14 514.13
  Q 977.13 500.44 971.29 479.26
  C 960.32 439.52 937.72 406.45 906.18 380.08
  Q 889.05 365.76 868.17 353.28
  Q 867.68 352.99 867.40 353.04
  A 1.04 1.04 0.0 0 0 866.54 353.96
  C 864.08 378.73 858.46 403.81 848.50 426.65
  Q 840.92 444.03 832.37 459.85
  C 800.36 519.09 752.54 568.36 694.95 603.16
  C 614.31 651.89 519.18 673.55 425.38 676.97
  Q 425.61 676.35 427.12 676.29
  Q 477.62 674.22 527.24 664.70
  Q 569.56 656.58 605.85 643.82
  C 644.62 630.20 678.10 613.74 710.74 591.92
  C 733.78 576.52 753.40 559.66 772.61 539.74
  C 802.89 508.33 826.83 472.14 845.09 432.52
  C 854.10 412.97 859.77 393.14 863.25 372.24
  Q 864.93 362.19 866.31 352.21
  A 0.36 0.36 0.0 0 1 866.80 351.93
  Q 868.89 352.81 870.98 354.05
  C 904.60 374.02 934.40 400.88 953.80 434.71
  C 961.28 447.75 968.03 463.52 972.98 481.51
  Q 977.91 499.47 980.00 524.63
  Z"
/>
<path fill="#000000" d="
  M 980.00 536.78
  L 980.00 555.10
  C 979.30 561.07 979.21 567.27 978.45 572.93
  C 977.69 578.56 977.28 584.29 976.07 589.84
  Q 975.40 592.91 974.76 596.00
  Q 963.52 649.83 926.51 690.28
  C 903.88 715.02 877.08 734.10 847.27 749.27
  A 1.53 1.52 -14.4 0 0 846.43 750.68
  C 846.75 762.54 847.85 774.04 850.06 785.99
  Q 857.12 824.03 871.41 860.06
  Q 873.29 864.80 876.85 872.00
  Q 880.19 878.76 880.55 881.87
  C 881.50 890.18 876.36 898.35 868.82 901.69
  C 861.50 904.92 850.84 902.53 843.07 900.25
  C 810.01 890.55 779.74 871.86 752.41 850.82
  Q 722.31 827.64 700.56 805.94
  Q 695.56 800.96 691.35 795.97
  A 2.52 2.51 -24.3 0 0 689.03 795.10
  C 677.21 796.95 666.75 797.51 653.63 797.42
  Q 633.12 797.27 612.61 797.14
  Q 612.08 797.13 611.95 797.42
  Q 611.16 797.61 610.28 797.35
  Q 609.90 796.81 609.25 796.77
  C 510.90 791.46 415.55 755.03 350.87 678.13
  Q 350.06 677.17 350.16 676.30
  L 351.62 676.21
  Q 358.60 677.16 365.64 676.68
  Q 367.68 676.43 369.74 677.04
  Q 395.25 678.84 420.72 677.03
  Q 423.42 676.09 425.38 676.97
  C 519.18 673.55 614.31 651.89 694.95 603.16
  C 752.54 568.36 800.36 519.09 832.37 459.85
  Q 840.92 444.03 848.50 426.65
  C 858.46 403.81 864.08 378.73 866.54 353.96
  A 1.04 1.04 0.0 0 1 867.40 353.04
  Q 867.68 352.99 868.17 353.28
  Q 889.05 365.76 906.18 380.08
  C 937.72 406.45 960.32 439.52 971.29 479.26
  Q 977.13 500.44 978.14 514.13
  C 978.42 517.83 979.05 521.38 979.12 524.63
  Q 979.26 530.73 980.00 536.78
  Z"
/>
<path fill="#abaaaa" d="
  M 980.00 555.10
  L 980.00 566.74
  C 979.19 574.01 978.58 581.29 977.08 588.48
  Q 976.19 592.72 975.32 596.95
  C 970.77 619.03 962.84 640.26 951.04 659.47
  C 927.68 697.46 892.75 726.16 853.65 746.93
  Q 850.57 748.56 847.54 750.33
  Q 847.12 750.58 847.07 751.07
  C 846.67 755.64 847.52 760.49 847.84 764.11
  C 849.56 783.41 854.04 802.85 859.38 821.44
  Q 861.78 829.78 864.34 838.07
  C 868.12 850.30 873.09 862.30 878.91 873.61
  C 881.62 878.86 882.06 885.93 879.84 891.49
  Q 875.63 902.04 863.38 904.00
  L 855.75 904.00
  Q 836.36 900.32 818.38 892.12
  C 783.02 876.00 751.77 853.14 722.13 827.12
  Q 705.74 812.74 693.43 799.82
  C 692.57 798.93 691.77 797.55 690.80 796.45
  A 1.28 1.26 70.0 0 0 689.94 796.04
  C 686.14 795.76 681.80 796.78 679.11 797.02
  C 657.69 798.92 635.74 798.07 614.25 797.65
  Q 613.10 797.62 611.95 797.42
  Q 612.08 797.13 612.61 797.14
  Q 633.12 797.27 653.63 797.42
  C 666.75 797.51 677.21 796.95 689.03 795.10
  A 2.52 2.51 -24.3 0 1 691.35 795.97
  Q 695.56 800.96 700.56 805.94
  Q 722.31 827.64 752.41 850.82
  C 779.74 871.86 810.01 890.55 843.07 900.25
  C 850.84 902.53 861.50 904.92 868.82 901.69
  C 876.36 898.35 881.50 890.18 880.55 881.87
  Q 880.19 878.76 876.85 872.00
  Q 873.29 864.80 871.41 860.06
  Q 857.12 824.03 850.06 785.99
  C 847.85 774.04 846.75 762.54 846.43 750.68
  A 1.53 1.52 -14.4 0 1 847.27 749.27
  C 877.08 734.10 903.88 715.02 926.51 690.28
  Q 963.52 649.83 974.76 596.00
  Q 975.40 592.91 976.07 589.84
  C 977.28 584.29 977.69 578.56 978.45 572.93
  C 979.21 567.27 979.30 561.07 980.00 555.10
  Z"
/>
<path fill="#abaaaa" d="
  M 155.64 569.93
  Q 156.03 574.87 155.55 578.76
  Q 154.11 590.38 150.39 602.73
  C 140.60 635.23 124.32 665.16 107.24 694.30
  Q 103.32 700.98 102.61 704.85
  C 100.23 717.80 110.03 729.02 122.84 731.02
  C 112.95 731.23 104.46 723.38 102.17 714.06
  Q 101.03 709.45 102.00 704.09
  Q 102.67 700.37 105.54 695.34
  C 117.78 673.84 130.95 651.25 139.81 629.81
  Q 145.56 615.90 146.97 611.00
  Q 148.74 604.82 150.77 598.73
  Q 154.21 588.38 155.64 569.93
  Z"
/>
<path fill="#abaaaa" d="
  M 404.84 612.37
  Q 377.85 614.18 351.01 610.97
  Q 348.11 610.63 345.25 610.02
  C 341.63 609.24 341.35 611.34 339.38 613.13
  C 301.71 647.36 258.83 676.27 214.09 700.29
  Q 204.88 705.24 196.22 709.29
  C 176.98 718.29 158.35 725.42 138.26 729.97
  Q 132.94 731.18 127.49 731.04
  C 161.40 726.07 194.80 710.28 224.42 693.63
  C 261.45 672.82 297.37 648.57 329.61 620.86
  Q 335.80 615.54 341.07 609.64
  A 1.60 1.58 25.2 0 1 342.49 609.14
  Q 351.81 610.59 361.31 611.39
  C 374.87 612.54 390.31 611.90 404.84 612.37
  Z"
/>
<path fill="#abaaaa" d="
  M 365.64 676.68
  Q 358.60 677.16 351.62 676.21
  Q 358.67 675.70 365.64 676.68
  Z"
/>
<path fill="#abaaaa" d="
  M 350.16 676.30
  Q 350.06 677.17 350.87 678.13
  C 415.55 755.03 510.90 791.46 609.25 796.77
  Q 609.90 796.81 610.28 797.35
  C 539.95 794.43 470.08 774.21 412.29 734.95
  C 388.86 719.03 368.17 699.10 348.93 677.23
  A 0.61 0.60 -27.7 0 1 349.24 676.24
  Q 349.54 676.17 350.16 676.30
  Z"
/>
<path fill="#abaaaa" d="
  M 369.74 677.04
  L 420.72 677.03
  Q 395.25 678.84 369.74 677.04
  Z"
/>
</svg>
