<svg width="28" height="30" viewBox="0 0 28 30" fill="none" xmlns="http://www.w3.org/2000/svg">
<path d="M5.88369 0.821358L5.82451 0.821255C5.44897 0.8206 5.144 1.12451 5.14334 1.50005L5.13582 5.80961C5.13517 6.18515 5.43907 6.49012 5.81462 6.49078L5.8738 6.49088C6.24934 6.49154 6.55431 6.18763 6.55496 5.81209L6.56248 1.50252C6.56314 1.12698 6.25923 0.822014 5.88369 0.821358Z" fill="white"/>
<path d="M2.65742 4.41191C2.02051 4.56865 1.58867 5.13145 1.58867 5.79356C1.58965 11.9313 1.59092 18.0689 1.59248 24.2066C1.59248 24.8849 2.04658 25.4705 2.70811 25.6085C2.81299 25.6304 3.00771 25.6413 3.29228 25.6413C6.32256 25.6413 9.36299 25.6413 12.4136 25.6413C12.4253 25.6413 12.4337 25.6465 12.4388 25.6568C12.6802 26.1522 12.9673 26.6192 13.3001 27.0581C13.301 27.0592 13.3015 27.0606 13.3017 27.062C13.3018 27.0635 13.3016 27.0649 13.3009 27.0662C13.3003 27.0675 13.2993 27.0686 13.298 27.0693C13.2968 27.0701 13.2954 27.0704 13.2939 27.0704C9.96074 27.0702 6.62666 27.0703 3.2917 27.0707C3.01631 27.0709 2.82139 27.0648 2.70693 27.0525C1.38623 26.9128 0.333594 25.8748 0.190039 24.5503C0.17793 24.437 0.171875 24.2418 0.171875 23.9647C0.171875 17.9637 0.171875 11.9627 0.171875 5.96172C0.171875 5.70781 0.182031 5.51318 0.202344 5.37783C0.408008 4.00059 1.58604 2.95234 2.98438 2.95264C3.46328 2.95264 3.9418 2.95264 4.41992 2.95264C4.42163 2.95264 4.42327 2.95335 4.42448 2.95461C4.42569 2.95587 4.42637 2.95759 4.42637 2.95938V4.3583C4.42637 4.36195 4.42492 4.36546 4.42233 4.36804C4.41975 4.37062 4.41625 4.37207 4.4126 4.37207C3.97295 4.37129 3.53389 4.37139 3.09541 4.37236C2.90986 4.37256 2.76387 4.38574 2.65742 4.41191Z" fill="white"/>
<path d="M15.7622 2.95264H7.26963C7.26526 2.95264 7.26172 2.95618 7.26172 2.96055V4.36387C7.26172 4.36824 7.26526 4.37178 7.26963 4.37178H15.7622C15.7666 4.37178 15.7701 4.36824 15.7701 4.36387V2.96055C15.7701 2.95618 15.7666 2.95264 15.7622 2.95264Z" fill="white"/>
<path d="M18.6621 10.0315H7.93301C7.5628 10.0315 7.2627 10.3316 7.2627 10.7018V10.7909C7.2627 11.1611 7.5628 11.4612 7.93301 11.4612H18.6621C19.0323 11.4612 19.3324 11.1611 19.3324 10.7909V10.7018C19.3324 10.3316 19.0323 10.0315 18.6621 10.0315Z" fill="white"/>
<path d="M5.20244 10.0491H5.07764C4.72734 10.0491 4.44336 10.333 4.44336 10.6833V10.8082C4.44336 11.1585 4.72734 11.4424 5.07764 11.4424H5.20244C5.55274 11.4424 5.83672 11.1585 5.83672 10.8082V10.6833C5.83672 10.333 5.55274 10.0491 5.20244 10.0491Z" fill="white"/>
<path d="M7.80086 15.6994C7.13113 15.5543 7.06404 14.5776 7.70008 14.3423C7.7825 14.3119 7.94139 14.2966 8.17674 14.2966C10.6377 14.2968 13.0957 14.2969 15.5508 14.2969C15.5726 14.2969 15.5744 14.3028 15.556 14.3145C14.9449 14.7106 14.4105 15.1785 13.9034 15.7046C13.8966 15.7117 13.8882 15.7152 13.8782 15.7152C11.9817 15.7152 10.0854 15.7152 8.18934 15.7152C7.9784 15.7152 7.84891 15.7099 7.80086 15.6994Z" fill="white"/>
<path d="M27.8271 21.7385C27.8271 23.7121 27.0431 25.6049 25.6476 27.0004C24.2521 28.3959 22.3593 29.1799 20.3857 29.1799C18.4122 29.1799 16.5194 28.3959 15.1239 27.0004C13.7283 25.6049 12.9443 23.7121 12.9443 21.7385C12.9443 19.7649 13.7283 17.8722 15.1239 16.4767C16.5194 15.0811 18.4122 14.2971 20.3857 14.2971C22.3593 14.2971 24.2521 15.0811 25.6476 16.4767C27.0431 17.8722 27.8271 19.7649 27.8271 21.7385ZM26.4089 21.7385C26.4089 20.9476 26.2531 20.1643 25.9504 19.4336C25.6477 18.7028 25.204 18.0388 24.6447 17.4795C24.0854 16.9202 23.4215 16.4766 22.6907 16.1739C21.9599 15.8712 21.1767 15.7154 20.3857 15.7154C18.7883 15.7154 17.2563 16.35 16.1267 17.4795C14.9972 18.6091 14.3626 20.1411 14.3626 21.7385C14.3626 23.336 14.9972 24.868 16.1267 25.9975C17.2563 27.1271 18.7883 27.7617 20.3857 27.7617C21.1767 27.7617 21.9599 27.6059 22.6907 27.3032C23.4215 27.0005 24.0854 26.5568 24.6447 25.9975C25.204 25.4382 25.6477 24.7742 25.9504 24.0435C26.2531 23.3127 26.4089 22.5295 26.4089 21.7385Z" fill="white"/>
<path d="M5.20273 14.3149H5.07734C4.7272 14.3149 4.44336 14.5988 4.44336 14.9489V15.0743C4.44336 15.4245 4.7272 15.7083 5.07734 15.7083H5.20273C5.55287 15.7083 5.83672 15.4245 5.83672 15.0743V14.9489C5.83672 14.5988 5.55287 14.3149 5.20273 14.3149Z" fill="white"/>
<path d="M5.1998 18.5574L5.075 18.5578C4.72453 18.5591 4.44142 18.8442 4.44264 19.1946L4.44312 19.33C4.44434 19.6804 4.72944 19.9636 5.0799 19.9623L5.2047 19.9619C5.55516 19.9607 5.83828 19.6756 5.83705 19.3251L5.83658 19.1898C5.83536 18.8393 5.55026 18.5562 5.1998 18.5574Z" fill="white"/>
<path d="M12.1181 18.5672C11.9529 19.0301 11.8026 19.4769 11.7039 19.9585C11.7033 19.9612 11.7018 19.9635 11.6997 19.9652C11.6975 19.9669 11.6949 19.9679 11.6922 19.9679C10.4525 19.9681 9.21256 19.9688 7.97233 19.9699C7.05065 19.9708 7.03014 18.5502 7.95768 18.5508C9.34206 18.5516 10.7251 18.5517 12.1067 18.5511C12.1182 18.5511 12.122 18.5564 12.1181 18.5672Z" fill="white"/>
</svg>
