<svg width="30" height="25" viewBox="0 0 30 25" fill="none" xmlns="http://www.w3.org/2000/svg">
<path d="M0.640784 24.987C0.363583 24.987 0.126661 24.8278 0.0483837 24.5712C0.0284977 24.506 0.0185547 24.3891 0.0185547 24.2204C0.0185547 16.3353 0.0185547 8.45022 0.0185547 0.565144C0.0185547 0.540401 0.0240645 0.506302 0.0350841 0.462846C0.0863824 0.261828 0.228308 0.109228 0.422101 0.0410294C0.464406 0.026209 0.516275 0.0187988 0.577706 0.0187988C10.1383 0.0187988 19.6989 0.0187988 29.2595 0.0187988C29.4034 0.0187988 29.5062 0.0282186 29.5679 0.0470581C29.8147 0.122416 29.9857 0.356214 29.9857 0.616953C29.9858 8.55629 29.9859 16.4956 29.9859 24.4348C29.9859 24.529 29.9317 24.6569 29.873 24.7366C29.7502 24.9036 29.5738 24.9871 29.3441 24.9871C19.7762 24.987 10.2085 24.987 0.640784 24.987ZM28.7883 1.22453C28.7883 1.21993 28.7865 1.21552 28.7832 1.21227C28.7799 1.20902 28.7755 1.20719 28.7709 1.20719H1.23356C1.22893 1.20719 1.22448 1.20902 1.2212 1.21227C1.21793 1.21552 1.21608 1.21993 1.21608 1.22453V23.7814C1.21608 23.786 1.21793 23.7904 1.2212 23.7937C1.22448 23.7969 1.22893 23.7988 1.23356 23.7988H28.7709C28.7755 23.7988 28.7799 23.7969 28.7832 23.7937C28.7865 23.7904 28.7883 23.786 28.7883 23.7814V1.22453Z" fill="white"/>
<path d="M17.389 7.15328H5.42544C5.42381 7.15328 5.42221 7.15296 5.42071 7.15235C5.41921 7.15173 5.41785 7.15083 5.4167 7.14969C5.41556 7.14856 5.41465 7.14721 5.41403 7.14572C5.41341 7.14424 5.41309 7.14264 5.41309 7.14104L5.41385 5.97562C5.41385 5.97238 5.41515 5.96926 5.41746 5.96697C5.41978 5.96467 5.42292 5.96338 5.42619 5.96338H17.3884C17.3917 5.96338 17.3948 5.96467 17.3971 5.96697C17.3994 5.96926 17.4007 5.97238 17.4007 5.97562L17.4013 7.14104C17.4013 7.14428 17.4 7.1474 17.3977 7.14969C17.3954 7.15199 17.3922 7.15328 17.389 7.15328Z" fill="white"/>
<path d="M17.3865 13.0979H5.42677C5.42314 13.0979 5.41966 13.0965 5.41709 13.0939C5.41453 13.0914 5.41309 13.0879 5.41309 13.0844L5.41366 11.9218C5.41366 11.9182 5.4151 11.9147 5.41766 11.9122C5.42023 11.9096 5.42371 11.9082 5.42734 11.9082H17.388C17.3916 11.9082 17.3951 11.9096 17.3977 11.9122C17.4002 11.9147 17.4017 11.9182 17.4017 11.9218L17.4002 13.0844C17.4002 13.0879 17.3987 13.0914 17.3962 13.0939C17.3936 13.0965 17.3901 13.0979 17.3865 13.0979Z" fill="white"/>
<path d="M17.3924 19.0425H5.42335C5.42062 19.0425 5.41802 19.0414 5.41609 19.0395C5.41417 19.0376 5.41309 19.035 5.41309 19.0323L5.41366 17.863C5.41366 17.8603 5.41474 17.8577 5.41666 17.8558C5.41859 17.8539 5.42119 17.8528 5.42392 17.8528H17.3895C17.3922 17.8528 17.3949 17.8539 17.3968 17.8558C17.3987 17.8577 17.3998 17.8603 17.3998 17.863L17.4026 19.0323C17.4026 19.035 17.4016 19.0376 17.3996 19.0395C17.3977 19.0414 17.3951 19.0425 17.3924 19.0425Z" fill="white"/>
</svg>
