<svg width="32" height="31" viewBox="0 0 32 31" fill="none" xmlns="http://www.w3.org/2000/svg">
<path d="M13.7834 1.02197L12.707 1.0243" stroke="#383A60" stroke-width="2"/>
<path d="M13.9375 1.03589C14.1408 1.0568 14.3468 1.05447 14.5442 1.07936C14.6344 1.09087 14.7247 1.10126 14.8152 1.11056C16.111 1.24562 17.3746 1.54297 18.5979 2.02682C21.9258 3.34363 24.916 6.1329 25.3335 10.168C25.3485 10.3107 25.3445 10.4985 25.3663 10.6641" stroke="#383A60" stroke-width="2"/>
<path d="M25.3642 11.3298C25.3485 11.7329 25.3193 12.0922 25.2767 12.4077C24.9436 14.8688 23.7142 16.985 21.9011 18.4903C19.6131 20.3899 16.6875 21.2388 13.8418 21.3012" stroke="#383A60" stroke-width="2"/>
<path d="M13.3926 21.3222C12.9479 21.3066 12.4752 21.3278 12.0601 21.2896C11.8662 21.2719 11.6742 21.2471 11.484 21.215C11.476 21.2136 11.4678 21.2145 11.4602 21.2174C11.4527 21.2203 11.4459 21.2251 11.4405 21.2316C11.333 21.3621 11.216 21.4862 11.0897 21.6039C10.1028 22.5235 9.00316 23.3282 7.86959 24.0188C6.96285 24.5714 5.9404 25.0954 4.90234 25.2603" stroke="#383A60" stroke-width="2"/>
<path d="M4.76012 25.2595C4.36798 25.1931 4.06798 24.8208 4.14084 24.391C4.15533 24.3054 4.20257 24.1887 4.28257 24.0409C4.80543 23.0739 5.3038 22.0806 5.60349 21.0021C5.67941 20.7288 5.73206 20.4637 5.76145 20.2066C5.77125 20.1205 5.77216 20.0229 5.7642 19.9136" stroke="#383A60" stroke-width="2"/>
<path d="M5.77949 19.8109C5.78908 19.7918 5.78224 19.7757 5.75898 19.7624C4.11786 18.8382 2.83306 17.3933 2.01051 15.6006C1.65173 14.8187 1.38888 14.0006 1.22194 13.1461C1.12643 12.6576 1.07041 12.2815 1.05388 12.0178C1.04408 11.8638 1.02602 11.7248 1.02143 11.5864C1.01857 11.4915 1.01143 11.3967 1 11.302" stroke="#383A60" stroke-width="2"/>
<path d="M1 10.5893C1.00918 10.5289 1.0152 10.4684 1.01806 10.4078C1.02316 10.306 1.02663 10.2455 1.02847 10.2263C1.45429 5.66455 5.30041 2.70139 9.0749 1.61621C10.212 1.28944 11.3696 1.09486 12.5476 1.03247" stroke="#383A60" stroke-width="2"/>
<path d="M12.8548 3.06079C11.6125 3.08269 10.3955 3.28291 9.20366 3.66145C7.25305 4.28103 5.33733 5.43424 4.07947 7.20836C3.29335 8.31743 2.84703 9.6276 2.86998 11.047C2.91254 13.6909 4.07121 16.2857 6.17978 17.703C6.30652 17.7882 6.48519 17.8951 6.7158 18.0236C7.01376 18.1898 7.30845 18.3534 7.59988 18.5144C7.61573 18.5232 7.62882 18.5369 7.63749 18.5537C7.64616 18.5705 7.65001 18.5898 7.64856 18.609C7.61917 19.0033 7.5906 19.3943 7.56284 19.7821C7.54294 20.0599 7.51019 20.2896 7.45509 20.5421C7.32468 21.1399 7.16437 21.7283 6.97417 22.3073C6.96968 22.3207 6.96764 22.3308 6.96805 22.3374C6.96826 22.3403 6.96915 22.3431 6.97064 22.3454C6.97212 22.3478 6.97415 22.3497 6.97653 22.351C6.97891 22.3523 6.98154 22.3529 6.98419 22.3527C6.98683 22.3525 6.98939 22.3516 6.99162 22.3501C7.79264 21.7841 8.54396 21.1591 9.2456 20.4751C9.37294 20.3506 9.49447 20.2129 9.62213 20.0991C9.97601 19.784 10.3281 19.4662 10.6786 19.1456C10.6863 19.1388 10.6959 19.1351 10.7058 19.1353C10.9789 19.1423 11.2531 19.1689 11.5256 19.1908C11.6531 19.2009 11.8193 19.2188 12.024 19.2442C12.897 19.3527 13.7744 19.3391 14.6836 19.2638C17.3875 19.0388 20.1754 17.8988 21.9405 15.5709C22.7826 14.4601 23.3116 13.1357 23.4549 11.7054C23.4816 11.4394 23.4961 11.2641 23.4984 11.1794C23.5294 9.95946 23.2551 8.83037 22.6755 7.7921C21.6772 6.00438 19.9424 4.72041 18.1734 3.99663C16.7238 3.40393 15.2131 3.09232 13.6415 3.06179" stroke="#383A60" stroke-width="2"/>
<path d="M13.3978 3.05868C13.3017 3.0423 13.2026 3.04297 13.1006 3.06067" stroke="#383A60" stroke-width="2"/>
<path d="M8.33391 13.5773C8.88208 13.5284 9.33249 13.3098 9.68514 12.9215C10.0984 12.4666 10.3292 11.7852 10.2551 11.1418C10.1465 10.1973 9.50759 9.45892 8.66055 9.25881C7.69289 9.03016 6.70228 9.52795 6.29208 10.5119C5.78483 11.7282 6.41085 13.0848 7.56034 13.4787C7.7134 13.5315 7.88759 13.5527 8.05504 13.5823" stroke="#383A60" stroke-width="2"/>
<path d="M11.6553 11.4685C11.6739 11.5598 11.6681 11.6553 11.685 11.7406C11.7092 11.8631 11.729 11.9928 11.7688 12.1063C11.9897 12.7349 12.3773 13.1703 12.9318 13.4125C14.2099 13.9714 15.6266 12.9639 15.6774 11.4659C15.7007 10.7879 15.4108 10.1066 14.9195 9.68908C13.608 8.57503 11.7826 9.5288 11.6593 11.2827" stroke="#383A60" stroke-width="2"/>
<path d="M21.0581 11.3917C21.0581 10.8145 20.8466 10.2609 20.4701 9.85276C20.0936 9.44462 19.583 9.21533 19.0505 9.21533C18.5181 9.21533 18.0075 9.44462 17.631 9.85276C17.2545 10.2609 17.043 10.8145 17.043 11.3917C17.043 11.9689 17.2545 12.5224 17.631 12.9306C18.0075 13.3387 18.5181 13.568 19.0505 13.568C19.583 13.568 20.0936 13.3387 20.4701 12.9306C20.8466 12.5224 21.0581 11.9689 21.0581 11.3917Z" stroke="#383A60" stroke-width="2"/>
<path d="M30.9996 18.8136C30.9845 18.6798 30.9756 18.5454 30.9727 18.4104C30.9706 18.3026 30.9513 18.1848 30.9427 18.062C30.9221 17.7591 30.8522 17.3734 30.733 16.9048C30.3972 15.586 29.7054 14.4885 28.7399 13.6134C28.3903 13.2966 28.0024 13.0001 27.5763 12.724C27.5663 12.7176 27.5584 12.715 27.5527 12.7161C27.5458 12.7173 27.5396 12.721 27.5348 12.7265C27.53 12.732 27.5271 12.7391 27.5264 12.7466C27.4511 13.5686 27.279 14.4009 26.9741 15.1589C26.8194 15.5434 26.6549 15.9106 26.4804 16.2606C25.5005 18.2266 24.0366 19.8616 22.2736 21.0165C19.8051 22.6337 16.8929 23.3525 14.0215 23.466" stroke="#383A60" stroke-width="2"/>
<path d="M19.6819 27.4607C19.6742 27.4488 19.6637 27.4424 19.6504 27.4415C16.6397 27.2653 13.7208 26.0563 11.7408 23.5043C11.7243 23.4831 11.717 23.4629 11.7191 23.4436" stroke="#383A60" stroke-width="2"/>
<path d="M11.7637 23.4407C11.9061 23.4617 12.0492 23.4669 12.1929 23.4563" stroke="#383A60" stroke-width="2"/>
<path d="M12.3184 23.4681C12.839 23.5079 13.3592 23.5078 13.879 23.4678" stroke="#383A60" stroke-width="2"/>
<path d="M12.9195 1H13.5587L13.7834 1.0219L12.707 1.02423L12.9195 1Z" fill="#ABAAAA"/>
<path d="M12.707 1.02414L13.7834 1.02182C13.8372 1.01762 13.8885 1.02226 13.937 1.03576C14.1403 1.05667 14.3463 1.05434 14.5438 1.07923C14.634 1.09074 14.7243 1.10114 14.8147 1.11043C16.1105 1.24549 17.3742 1.54284 18.5974 2.02669C21.9253 3.3435 24.9155 6.13277 25.3331 10.1678C25.3481 10.3105 25.3441 10.4984 25.3658 10.664L25.364 11.3297C25.3483 11.7328 25.3191 12.0921 25.2764 12.4076C24.9434 14.8686 23.714 16.9849 21.9008 18.4902C19.6129 20.3897 16.6872 21.2386 13.8415 21.301L13.3931 21.3219C12.9483 21.3063 12.4756 21.3276 12.0605 21.2894C11.8666 21.2717 11.6746 21.2468 11.4844 21.2147C11.4764 21.2134 11.4682 21.2142 11.4607 21.2171C11.4531 21.22 11.4463 21.2249 11.4409 21.2313C11.3334 21.3619 11.2164 21.486 11.0901 21.6037C10.1032 22.5233 9.00357 23.328 7.87 24.0186C6.96326 24.5712 5.94082 25.0952 4.90275 25.2601C4.85153 25.2712 4.80408 25.2709 4.76041 25.2594C4.36826 25.1931 4.06827 24.8207 4.14112 24.391C4.15561 24.3053 4.20286 24.1886 4.28286 24.0408C4.80571 23.0738 5.30408 22.0806 5.60378 21.002C5.67969 20.7288 5.73235 20.4636 5.76173 20.2066C5.77153 20.1205 5.77245 20.0228 5.76449 19.9135L5.77949 19.8106C5.78908 19.7916 5.78224 19.7755 5.75898 19.7622C4.11786 18.838 2.83306 17.3931 2.01051 15.6004C1.65173 14.8185 1.38888 14.0004 1.22194 13.1459C1.12643 12.6574 1.07041 12.2813 1.05388 12.0176C1.04408 11.8636 1.02602 11.7246 1.02143 11.5862C1.01857 11.4913 1.01143 11.3965 1 11.3018V10.5893C1.00918 10.5289 1.0152 10.4684 1.01806 10.4078C1.02316 10.306 1.02663 10.2455 1.02847 10.2262C1.45429 5.66452 5.30041 2.70136 9.0749 1.61618C10.212 1.28941 11.3696 1.09483 12.5476 1.03244C12.601 1.01939 12.6542 1.01662 12.707 1.02414ZM13.1001 3.06043L12.8549 3.06076C11.6127 3.08266 10.3956 3.28288 9.20377 3.66142C7.25316 4.281 5.33745 5.43421 4.07959 7.20833C3.29347 8.3174 2.84714 9.62757 2.8701 11.0469C2.91265 13.6908 4.07133 16.2856 6.1799 17.703C6.30663 17.7882 6.48531 17.8951 6.71592 18.0236C7.01388 18.1897 7.30857 18.3533 7.6 18.5144C7.61585 18.5232 7.62894 18.5368 7.63761 18.5537C7.64627 18.5705 7.65013 18.5898 7.64867 18.609C7.61929 19.0032 7.59071 19.3943 7.56296 19.7821C7.54306 20.0599 7.51031 20.2895 7.4552 20.5421C7.3248 21.1399 7.16449 21.7282 6.97429 22.3072C6.9698 22.3207 6.96775 22.3308 6.96816 22.3374C6.96837 22.3403 6.96927 22.343 6.97075 22.3454C6.97224 22.3478 6.97427 22.3497 6.97665 22.351C6.97902 22.3522 6.98166 22.3528 6.98431 22.3527C6.98695 22.3525 6.98951 22.3516 6.99173 22.35C7.79275 21.7841 8.54408 21.1591 9.24571 20.475C9.37306 20.3506 9.49459 20.2129 9.62224 20.099C9.97612 19.784 10.3283 19.4662 10.6787 19.1456C10.6864 19.1387 10.696 19.1351 10.7059 19.1353C10.979 19.1423 11.2533 19.1688 11.5257 19.1907C11.6533 19.2009 11.8194 19.2187 12.0241 19.2442C12.8971 19.3527 13.7745 19.3391 14.6837 19.2637C17.3877 19.0387 20.1755 17.8988 21.9406 15.5708C22.7828 14.4601 23.3117 13.1356 23.455 11.7053C23.4817 11.4394 23.4962 11.2641 23.4985 11.1793C23.5295 9.95943 23.2552 8.83034 22.6756 7.79206C21.6773 6.00434 19.9426 4.72038 18.1735 3.9966C16.7239 3.4039 15.2133 3.09229 13.6416 3.06176L13.3973 3.05844C13.3012 3.04206 13.2021 3.04273 13.1001 3.06043Z" fill="white"/>
<path d="M12.5476 1.03247C11.3696 1.09486 10.212 1.28944 9.0749 1.61621C5.30041 2.70139 1.45429 5.66455 1.02847 10.2263C1.02663 10.2455 1.02316 10.306 1.01806 10.4078C1.0152 10.4684 1.00918 10.5289 1 10.5893V10.2508C1.01347 10.1741 1.02439 10.0964 1.03276 10.0179C1.08602 9.5244 1.17296 9.09066 1.29418 8.65592C1.35908 8.42329 1.44204 8.20393 1.52561 7.9796C1.69194 7.53468 1.89143 7.10813 2.12408 6.69995C2.49551 6.04818 2.96898 5.42152 3.54449 4.81997C4.14755 4.18966 4.84735 3.62252 5.64388 3.11853C5.79367 3.02384 5.97286 2.91787 6.18143 2.80061C7.0101 2.33502 7.76653 2.00581 8.58449 1.73734C9.87755 1.313 11.1986 1.07805 12.5476 1.03247Z" fill="#ABAAAA"/>
<path d="M13.9375 1.03573C14.1643 1.02777 14.3269 1.05233 14.5231 1.0666C15.6634 1.1489 16.8291 1.37622 17.9284 1.75421C18.0187 1.78507 18.1794 1.83352 18.3117 1.88496C18.6756 2.02611 19.0002 2.16173 19.2855 2.29182C20.4216 2.8104 21.4581 3.49956 22.3951 4.35929C22.6433 4.58728 22.8959 4.86969 23.1392 5.13518C23.2521 5.25863 23.3475 5.36947 23.4255 5.4677C24.0533 6.25885 24.5551 7.13264 24.905 8.10398C24.9392 8.19912 25.0098 8.43053 25.1168 8.79823C25.1819 9.02235 25.2419 9.31848 25.2968 9.68662C25.3496 10.041 25.3728 10.3668 25.3663 10.6639C25.3445 10.4983 25.3485 10.3105 25.3335 10.1678C24.916 6.13275 21.9258 3.34348 18.5979 2.02666C17.3746 1.54281 16.111 1.24547 14.8152 1.1104C14.7247 1.10111 14.6344 1.09071 14.5442 1.07921C14.3468 1.05432 14.1408 1.05664 13.9375 1.03573Z" fill="#ABAAAA"/>
<path d="M13.3978 3.05843L13.1006 3.06042C13.2026 3.04272 13.3017 3.04206 13.3978 3.05843Z" fill="#ABAAAA"/>
<path d="M12.8548 3.06079C12.7693 3.07473 12.6187 3.08645 12.4029 3.09597C11.9511 3.11588 11.4462 3.17617 10.8883 3.27683C10.2952 3.38391 9.7109 3.53092 9.13539 3.71787C8.58274 3.8973 8.04417 4.11665 7.51968 4.37595C6.51131 4.87462 5.60631 5.53679 4.80468 6.36245C4.69417 6.47661 4.58886 6.60968 4.48233 6.73579C3.73968 7.61522 3.19845 8.67915 2.98784 9.83203C2.90121 10.3073 2.87305 10.8691 2.90213 11.3413C2.93029 11.7977 2.96396 12.1282 3.00315 12.3326C3.03601 12.5036 3.07039 12.6742 3.10631 12.8443C3.19733 13.2777 3.31896 13.6999 3.47121 14.111C4.00631 15.5546 4.93539 16.8103 6.13386 17.639C6.27927 17.7392 6.44856 17.8361 6.60713 17.932C6.94754 18.1378 7.29988 18.319 7.64825 18.5071C7.65525 18.511 7.66122 18.5167 7.66556 18.5238C7.66991 18.5308 7.67248 18.5389 7.67305 18.5473C7.67825 18.6366 7.65866 18.7418 7.65407 18.8118C7.62856 19.191 7.60131 19.57 7.57233 19.9487C7.56233 20.0795 7.55264 20.1709 7.54325 20.2228C7.45774 20.6932 7.34641 21.1561 7.20927 21.6117C7.16427 21.7613 7.09662 22.056 7.00539 22.2648C6.9909 22.298 6.99784 22.3046 7.02621 22.2847C7.7609 21.7673 8.49039 21.1783 9.14672 20.5345C9.31509 20.3695 9.47488 20.194 9.64723 20.037C9.97825 19.7357 10.312 19.438 10.6486 19.144C10.6735 19.1223 10.7021 19.1122 10.7346 19.1138C11.1427 19.1339 11.5498 19.1691 11.9557 19.2193C12.6059 19.2999 13.0654 19.2923 13.8534 19.284C14.8844 19.2734 15.9163 19.1128 16.9134 18.8347C19.8411 18.018 22.6026 15.8619 23.3116 12.5025C23.4292 11.9452 23.4809 11.3632 23.4668 10.7566C23.4298 9.15172 22.7823 7.73834 21.7902 6.56986C21.6316 6.38291 21.4638 6.2067 21.2866 6.04121C21.0472 5.81787 20.7956 5.58822 20.5323 5.38712C20.0936 5.05194 19.6346 4.75338 19.1554 4.49143C18.7344 4.26112 18.238 4.04188 17.6664 3.83369C16.4686 3.39696 15.2471 3.15803 13.9737 3.09464C13.8624 3.08911 13.7517 3.07816 13.6415 3.06179C15.2131 3.09232 16.7238 3.40393 18.1734 3.99663C19.9424 4.72041 21.6772 6.00438 22.6755 7.7921C23.2551 8.83037 23.5294 9.95946 23.4984 11.1794C23.4961 11.2641 23.4816 11.4394 23.4549 11.7054C23.3116 13.1357 22.7826 14.4601 21.9405 15.5709C20.1754 17.8988 17.3875 19.0388 14.6836 19.2638C13.7744 19.3391 12.897 19.3527 12.024 19.2442C11.8193 19.2188 11.6531 19.2009 11.5256 19.1908C11.2531 19.1689 10.9789 19.1423 10.7058 19.1353C10.6959 19.1351 10.6863 19.1388 10.6786 19.1456C10.3281 19.4662 9.97601 19.784 9.62213 20.0991C9.49447 20.2129 9.37294 20.3506 9.2456 20.4751C8.54396 21.1591 7.79264 21.7841 6.99162 22.3501C6.98939 22.3516 6.98683 22.3525 6.98419 22.3527C6.98154 22.3529 6.97891 22.3523 6.97653 22.351C6.97415 22.3497 6.97212 22.3478 6.97064 22.3454C6.96915 22.3431 6.96826 22.3403 6.96805 22.3375C6.96764 22.3308 6.96968 22.3207 6.97417 22.3073C7.16437 21.7283 7.32468 21.1399 7.45509 20.5421C7.51019 20.2896 7.54294 20.0599 7.56284 19.7821C7.5906 19.3943 7.61917 19.0033 7.64856 18.609C7.65001 18.5898 7.64616 18.5705 7.63749 18.5537C7.62882 18.5369 7.61573 18.5232 7.59988 18.5144C7.30845 18.3534 7.01376 18.1898 6.7158 18.0236C6.48519 17.8951 6.30652 17.7882 6.17978 17.703C4.07121 16.2857 2.91254 13.6909 2.86998 11.047C2.84703 9.6276 3.29335 8.31743 4.07947 7.20836C5.33733 5.43424 7.25305 4.28103 9.20366 3.66145C10.3955 3.28291 11.6125 3.08269 12.8548 3.06079Z" fill="#ABAAAA"/>
<path d="M8.33424 13.5771C8.8824 13.5282 9.33281 13.3096 9.68546 12.9213C10.0987 12.4663 10.3295 11.785 10.2555 11.1416C10.1468 10.1971 9.50791 9.45871 8.66087 9.2586C7.69322 9.02995 6.70261 9.52774 6.2924 10.5117C5.78516 11.728 6.41118 13.0846 7.56067 13.4785C7.71373 13.5313 7.88791 13.5525 8.05536 13.5821C7.74251 13.587 7.4171 13.4878 7.12812 13.3103C6.57465 12.9704 6.20914 12.3817 6.11546 11.6941C6.10261 11.6003 6.09934 11.4608 6.10567 11.2756C6.14363 10.1324 7.02495 9.20517 8.08383 9.19754C8.25557 9.19655 8.43434 9.18758 8.59659 9.21812C9.40597 9.37143 10.0295 10.0096 10.2325 10.8688C10.2907 11.115 10.2943 11.4326 10.2748 11.6775C10.2648 11.8023 10.2304 11.9511 10.1716 12.1239C9.94138 12.8013 9.51036 13.2563 8.87853 13.4888C8.70322 13.5534 8.52179 13.5828 8.33424 13.5771Z" fill="#ABAAAA"/>
<path d="M11.6551 11.4684C11.6738 11.5596 11.668 11.6552 11.6848 11.7405C11.709 11.8629 11.7289 11.9927 11.7687 12.1062C11.9895 12.7347 12.3772 13.1701 12.9317 13.4124C14.2097 13.9712 15.6265 12.9637 15.6773 11.4657C15.7006 10.7877 15.4107 10.1064 14.9193 9.68893C13.6079 8.57488 11.7825 9.52864 11.6591 11.2825C11.6499 11.2053 11.648 11.1461 11.6533 11.105C11.6827 10.8789 11.7142 10.7278 11.7479 10.6517C11.7963 10.5428 11.8361 10.4174 11.8869 10.3218C12.2098 9.7115 12.7535 9.30895 13.3979 9.20508C13.5712 9.17721 13.8764 9.18583 14.0698 9.22831C15.4073 9.52134 16.1129 11.1408 15.4584 12.4414C15.1232 13.1074 14.4693 13.5654 13.7603 13.584C13.4809 13.5913 13.2494 13.5703 12.9895 13.4638C12.7186 13.3533 12.5224 13.2299 12.3139 13.0361C12.2065 12.9365 12.1168 12.8094 12.0228 12.6876C11.9326 12.5703 11.8425 12.3832 11.7525 12.1261C11.6784 11.9139 11.646 11.6947 11.6551 11.4684Z" fill="#ABAAAA"/>
<path d="M21.0845 11.3902C21.0845 11.6796 21.0319 11.9662 20.9297 12.2335C20.8276 12.5009 20.6778 12.7439 20.489 12.9485C20.3003 13.1532 20.0761 13.3155 19.8295 13.4263C19.5828 13.537 19.3185 13.594 19.0515 13.594C18.7845 13.594 18.5202 13.537 18.2735 13.4263C18.0269 13.3155 17.8028 13.1532 17.614 12.9485C17.4252 12.7439 17.2755 12.5009 17.1733 12.2335C17.0711 11.9662 17.0186 11.6796 17.0186 11.3902C17.0186 10.8056 17.2327 10.2451 17.614 9.83178C17.9952 9.41847 18.5123 9.18628 19.0515 9.18628C19.3185 9.18628 19.5828 9.24328 19.8295 9.35404C20.0761 9.46479 20.3003 9.62713 20.489 9.83178C20.6778 10.0364 20.8276 10.2794 20.9297 10.5468C21.0319 10.8142 21.0845 11.1007 21.0845 11.3902ZM21.0581 11.3915C21.0581 10.8143 20.8466 10.2607 20.4701 9.85258C20.0937 9.44444 19.583 9.21515 19.0506 9.21515C18.5182 9.21515 18.0075 9.44444 17.631 9.85258C17.2546 10.2607 17.043 10.8143 17.043 11.3915C17.043 11.9687 17.2546 12.5222 17.631 12.9304C18.0075 13.3385 18.5182 13.5678 19.0506 13.5678C19.583 13.5678 20.0937 13.3385 20.4701 12.9304C20.8466 12.5222 21.0581 11.9687 21.0581 11.3915Z" fill="#ABAAAA"/>
<path d="M8.33391 13.577L8.05504 13.582C7.88759 13.5525 7.7134 13.5312 7.56034 13.4785C6.41085 13.0846 5.78483 11.7279 6.29208 10.5117C6.70228 9.5277 7.69289 9.02991 8.66055 9.25857C9.50759 9.45868 10.1465 10.1971 10.2551 11.1415C10.3292 11.785 10.0984 12.4663 9.68514 12.9213C9.33249 13.3096 8.88208 13.5281 8.33391 13.577Z" fill="white"/>
<path d="M11.6553 11.4685L11.6593 11.2827C11.7826 9.5288 13.608 8.57503 14.9195 9.68908C15.4108 10.1066 15.7007 10.7879 15.6774 11.4659C15.6266 12.9639 14.2099 13.9714 12.9318 13.4125C12.3773 13.1703 11.9897 12.7349 11.7688 12.1063C11.729 11.9928 11.7092 11.8631 11.685 11.7406C11.6681 11.6553 11.6739 11.5598 11.6553 11.4685Z" fill="white"/>
<path d="M19.0505 13.5677C20.1593 13.5677 21.0581 12.5934 21.0581 11.3914C21.0581 10.1895 20.1593 9.21509 19.0505 9.21509C17.9418 9.21509 17.043 10.1895 17.043 11.3914C17.043 12.5934 17.9418 13.5677 19.0505 13.5677Z" fill="white"/>
<path d="M1 11.3018C1.01143 11.3964 1.01857 11.4912 1.02143 11.5862C1.02602 11.7245 1.04408 11.8636 1.05388 12.0176C1.07041 12.2813 1.12643 12.6574 1.22194 13.1459C1.38888 14.0003 1.65173 14.8185 2.01051 15.6003C2.83306 17.393 4.11786 18.8379 5.75898 19.7622C5.78224 19.7754 5.78908 19.7916 5.77949 19.8106C5.61847 19.7011 5.4152 19.5896 5.2851 19.5053C4.59714 19.0613 3.9801 18.5206 3.43398 17.8832C2.965 17.3358 2.56265 16.7358 2.22694 16.0832C2.16082 15.9549 2.0951 15.8262 2.0298 15.6972C1.96878 15.5766 1.86449 15.3253 1.71694 14.9432C1.56388 14.5466 1.44122 14.1672 1.34898 13.8053C1.29429 13.5903 1.23255 13.3143 1.16378 12.9773C1.11888 12.7578 1.06429 12.3285 1 11.6894V11.3018Z" fill="#ABAAAA"/>
<path d="M25.3642 11.3298C25.3712 11.5126 25.3718 11.6451 25.3661 11.7274C25.2693 13.1262 24.9069 14.4805 24.2463 15.6924C23.3696 17.3013 22.0587 18.5819 20.5489 19.4882C19.5093 20.1118 18.2846 20.6076 17.0947 20.897C16.2138 21.1116 15.3081 21.2461 14.3775 21.3005C14.1791 21.312 14.0006 21.3122 13.8418 21.3012C16.6875 21.2388 19.6131 20.3899 21.9011 18.4903C23.7142 16.985 24.9436 14.8688 25.2767 12.4077C25.3193 12.0922 25.3485 11.7329 25.3642 11.3298Z" fill="#ABAAAA"/>
<path d="M30.9996 18.4103V18.8135C30.9845 18.6796 30.9756 18.5452 30.9727 18.4103C30.9706 18.3024 30.9513 18.1846 30.9427 18.0618C30.9221 17.7589 30.8522 17.3732 30.733 16.9046C30.3972 15.5858 29.7054 14.4884 28.7399 13.6133C28.3903 13.2964 28.0024 13 27.5763 12.7239C27.5663 12.7175 27.5584 12.7148 27.5527 12.7159C27.5458 12.7172 27.5396 12.7209 27.5348 12.7264C27.53 12.7319 27.5271 12.7389 27.5264 12.7464C27.4511 13.5685 27.279 14.4008 26.9741 15.1587C26.8194 15.5432 26.6549 15.9105 26.4804 16.2605C25.5005 18.2264 24.0366 19.8615 22.2736 21.0164C19.8051 22.6335 16.8929 23.3523 14.0215 23.4658C14.0262 23.4521 14.0439 23.4446 14.0747 23.4432C15.1054 23.3974 16.127 23.2692 17.1396 23.0586C18.0033 22.879 18.8055 22.648 19.5461 22.3657C20.7329 21.9137 21.7578 21.3675 22.757 20.6434C23.4623 20.1323 24.0629 19.5728 24.651 18.9117C25.5779 17.8693 26.3108 16.6684 26.8698 15.3535C27.1456 14.7047 27.3191 14.0467 27.4257 13.3531C27.46 13.1307 27.4912 12.9092 27.5193 12.6884C27.5196 12.6866 27.5202 12.6849 27.5211 12.6834C27.5221 12.6819 27.5233 12.6807 27.5248 12.6798C27.5262 12.6789 27.5278 12.6784 27.5295 12.6783C27.5311 12.6781 27.5328 12.6784 27.5343 12.6791C27.577 12.6986 27.6196 12.722 27.6623 12.7494C28.6915 13.4122 29.6037 14.3035 30.1976 15.4262C30.4266 15.8589 30.6332 16.3823 30.7847 16.9793C30.8854 17.3766 30.957 17.8536 30.9996 18.4103Z" fill="#ABAAAA"/>
<path d="M30.9999 18.8134V19.4214C30.9785 19.6195 30.9757 19.8252 30.9525 20.0131C30.9292 20.1999 30.9166 20.39 30.8796 20.5742C30.8659 20.6421 30.8526 20.7103 30.8395 20.7787C30.6101 21.9696 30.1178 23.0125 29.3625 23.9074C28.6697 24.7284 27.8493 25.3616 26.9367 25.865C26.9288 25.8694 26.9221 25.8761 26.9176 25.8844C26.913 25.8927 26.9107 25.9022 26.911 25.9118C26.9208 26.3054 26.9545 26.6871 27.0221 27.0836C27.1662 27.9252 27.3841 28.7446 27.6757 29.5417C27.7141 29.6466 27.7696 29.7787 27.8422 29.9379C27.9104 30.0875 27.9482 30.1967 27.9555 30.2655C27.9846 30.5413 27.8272 30.8124 27.5964 30.9232C27.3724 31.0304 27.046 30.9511 26.8082 30.8754C25.7961 30.5535 24.8695 29.9333 24.0329 29.2351C23.4186 28.7222 22.8895 28.2258 22.4456 27.7457C22.3436 27.6355 22.2496 27.5252 22.1637 27.4148C22.1552 27.4038 22.1442 27.3953 22.1317 27.3903C22.1193 27.3852 22.1058 27.3837 22.0927 27.386C21.7308 27.4473 21.4106 27.4659 21.009 27.4629C20.5904 27.4596 20.1718 27.4565 19.7533 27.4537C19.7425 27.4534 19.7357 27.4565 19.7331 27.4629C19.7169 27.4671 19.6999 27.4664 19.6819 27.4606C19.6742 27.4487 19.6637 27.4423 19.6504 27.4414C16.6397 27.2652 13.7208 26.0562 11.7408 23.5042C11.7243 23.483 11.717 23.4627 11.7191 23.4435L11.7638 23.4405C11.9062 23.4615 12.0493 23.4667 12.193 23.4561C12.2346 23.4506 12.2764 23.4545 12.3185 23.468C12.8391 23.5079 13.3593 23.5077 13.8791 23.4677C13.9342 23.4469 13.9817 23.4462 14.0217 23.4657C16.8932 23.3522 19.8053 22.6334 22.2739 21.0163C24.0368 19.8614 25.5007 18.2263 26.4806 16.2604C26.6551 15.9104 26.8197 15.5431 26.9744 15.1586C27.2793 14.4007 27.4513 13.5684 27.5266 12.7464C27.5273 12.7388 27.5303 12.7318 27.5351 12.7263C27.5398 12.7208 27.5461 12.7171 27.553 12.7158C27.5587 12.7147 27.5665 12.7174 27.5765 12.7238C28.0027 12.9999 28.3905 13.2964 28.7401 13.6132C29.7056 14.4883 30.3975 15.5857 30.7333 16.9045C30.8525 17.3731 30.9224 17.7589 30.943 18.0617C30.9515 18.1845 30.9708 18.3023 30.973 18.4102C30.9758 18.5451 30.9848 18.6795 30.9999 18.8134Z" fill="white"/>
<path d="M5.76409 19.9136C5.77205 20.0229 5.77113 20.1205 5.76134 20.2066C5.73195 20.4637 5.67929 20.7288 5.60338 21.0021C5.30368 22.0806 4.80531 23.0739 4.28246 24.0409C4.20246 24.1887 4.15521 24.3054 4.14072 24.391C4.06787 24.8208 4.36787 25.1931 4.76001 25.2595C4.45725 25.2665 4.19736 25.0059 4.12725 24.6966C4.10399 24.5947 4.10225 24.4844 4.12205 24.3658C4.13572 24.2835 4.17185 24.1867 4.23042 24.0754C4.60511 23.3619 5.00827 22.6122 5.2795 21.9007C5.39685 21.593 5.46991 21.3849 5.49868 21.2765C5.5348 21.1398 5.57358 21.0041 5.61501 20.8693C5.68521 20.6403 5.73491 20.3218 5.76409 19.9136Z" fill="#ABAAAA"/>
<path d="M13.3926 21.3219C12.8418 21.362 12.2925 21.3465 11.7448 21.2755C11.6856 21.2679 11.6268 21.2574 11.5685 21.2439C11.4576 21.218 11.4491 21.2877 11.3888 21.3471C10.2356 22.4831 8.92296 23.4425 7.55336 24.2396C7.3654 24.3491 7.18306 24.4487 7.00632 24.5383C6.41734 24.837 5.84704 25.0736 5.23204 25.2246C5.12347 25.2513 5.01357 25.2632 4.90234 25.2601C5.9404 25.0951 6.96285 24.5711 7.86959 24.0186C9.00316 23.328 10.1028 22.5232 11.0897 21.6037C11.216 21.486 11.333 21.3619 11.4405 21.2313C11.4459 21.2249 11.4527 21.22 11.4602 21.2171C11.4678 21.2142 11.476 21.2134 11.484 21.2147C11.6742 21.2468 11.8662 21.2717 12.0601 21.2894C12.4752 21.3276 12.9479 21.3063 13.3926 21.3219Z" fill="#ABAAAA"/>
<path d="M12.1929 23.4562C12.0492 23.4668 11.9061 23.4616 11.7637 23.4406C11.9075 23.4293 12.0506 23.4345 12.1929 23.4562Z" fill="#ABAAAA"/>
<path d="M11.7191 23.4435C11.7171 23.4627 11.7243 23.483 11.7409 23.5042C13.7209 26.0562 16.6397 27.2652 19.6505 27.4414C19.6637 27.4423 19.6742 27.4487 19.682 27.4606C17.529 27.3637 15.3902 26.6927 13.6211 25.3898C12.9038 24.8615 12.2705 24.2001 11.6815 23.4743C11.6793 23.4718 11.6779 23.4687 11.6772 23.4653C11.6765 23.462 11.6766 23.4585 11.6776 23.4552C11.6786 23.4518 11.6803 23.4489 11.6826 23.4465C11.685 23.4441 11.6878 23.4423 11.691 23.4415C11.6971 23.4399 11.7065 23.4406 11.7191 23.4435Z" fill="#ABAAAA"/>
<path d="M12.3184 23.4681L13.879 23.4678C13.3592 23.5078 12.839 23.5079 12.3184 23.4681Z" fill="#ABAAAA"/>
</svg>
