<svg width="32" height="32" viewBox="0 0 32 32" fill="none" xmlns="http://www.w3.org/2000/svg">
<path d="M15.5659 1C15.1833 1.01694 14.8027 1.04582 14.4241 1.08663C12.5657 1.28724 10.8091 1.81112 9.15418 2.65827C6.77041 3.87878 4.73224 5.74918 3.30816 8.01602C2.07694 9.97541 1.33714 12.114 1.08878 14.4317C1.08265 14.4897 1.07541 14.5476 1.06704 14.6053C1.05327 14.6996 1.0548 14.8116 1.03918 14.9148C1.03143 14.9664 1.02735 15.0116 1.02694 15.0504C1.0251 15.2235 1.01612 15.3966 1 15.5699" stroke="#383A60" stroke-width="2"/>
<path d="M16.4307 1C16.546 1.0098 16.6611 1.01755 16.776 1.02327C20.8719 1.22622 24.7575 3.14898 27.411 6.27235C28.853 7.96949 29.8696 9.89347 30.4609 12.0443C30.6733 12.8178 30.8217 13.6034 30.906 14.4011C30.9278 14.6083 30.9482 14.8156 30.9672 15.0232C30.984 15.2096 30.9733 15.4441 30.9999 15.6562" stroke="#383A60" stroke-width="2"/>
<path d="M29.5442 15.8426C29.5626 15.6446 29.5659 15.4904 29.5543 15.38C29.547 15.3094 29.5342 15.1359 29.516 14.8596C29.4866 14.4151 29.4077 13.8872 29.2791 13.276C28.9285 11.6126 28.2906 10.069 27.3655 8.64531C26.817 7.80041 26.0792 6.90562 25.294 6.17123C22.8107 3.84806 19.5857 2.54031 16.1666 2.50051C16.1195 2.4999 16.0708 2.51031 16.0225 2.51429" stroke="#383A60" stroke-width="2"/>
<path d="M15.9549 2.51746C15.9349 2.50399 15.9143 2.49736 15.8933 2.49756C15.1717 2.50573 14.5032 2.55909 13.8879 2.65767C7.78506 3.63389 3.05822 8.66593 2.49495 14.8444C2.47802 15.0293 2.46322 15.2143 2.45057 15.3994C2.43893 15.5667 2.44138 15.7341 2.45791 15.9014" stroke="#383A60" stroke-width="2"/>
<path d="M2.45944 16.3645C2.44454 16.49 2.44067 16.6236 2.44781 16.7652C2.48975 17.6217 2.60026 18.4718 2.79985 19.2981C4.12873 24.8049 8.74291 28.9256 14.4013 29.5979C14.7172 29.6354 15.1277 29.665 15.6328 29.6866C15.9775 29.7013 16.2629 29.7003 16.489 29.6836" stroke="#383A60" stroke-width="2"/>
<path d="M16.6186 29.6717C16.6957 29.6799 16.8035 29.6788 16.9418 29.6686C18.0584 29.5868 19.1265 29.3778 20.1463 29.0417C21.551 28.5786 22.8538 27.9161 24.0546 27.054C24.067 27.0451 24.0907 27.0204 24.1256 26.98C24.1823 26.9142 24.2618 26.8704 24.3641 26.8483C24.8377 26.7464 25.2818 27.1293 25.1771 27.6253C25.149 27.7581 25.0805 27.8662 24.9717 27.9494C23.1428 29.348 21.0732 30.276 18.763 30.7333C18.0315 30.878 17.2401 30.9669 16.3887 31" stroke="#383A60" stroke-width="2"/>
<path d="M15.5889 31C14.5372 30.964 13.5234 30.8298 12.5472 30.5971C7.19745 29.3221 2.98643 25.2427 1.52316 19.9391C1.30357 19.1438 1.14959 18.2833 1.06122 17.3576C1.05327 17.2737 1.05357 17.166 1.04224 17.0705C1.03204 16.9854 1.02622 16.9141 1.0248 16.8568C1.02194 16.7278 1.01367 16.5974 1 16.4656" stroke="#383A60" stroke-width="2"/>
<path d="M18.7048 18.2286C18.685 18.2202 18.6842 18.2104 18.7024 18.1992C19.2661 17.8506 19.7445 17.4307 20.1378 16.9395C21.3259 15.4554 21.6084 13.3811 20.8789 11.6261C19.955 9.40306 17.6411 8.07449 15.2426 8.42561C12.8913 8.76969 11.0698 10.6122 10.7686 12.97C10.7512 13.1081 10.7294 13.2397 10.7267 13.3781C10.721 13.6805 10.7224 13.9028 10.731 14.0448C10.7452 14.2783 10.7907 14.5598 10.8672 14.8894C11.1917 16.2853 12.0715 17.4614 13.3018 18.1989C13.3047 18.2007 13.3071 18.2033 13.3087 18.2065C13.3103 18.2096 13.311 18.2131 13.3107 18.2166C13.3104 18.22 13.3092 18.2234 13.3071 18.2262C13.305 18.229 13.3022 18.2312 13.299 18.2325C11.4243 18.9954 10.0734 20.4942 9.39657 22.3986C9.36637 22.4837 9.34953 22.5547 9.34606 22.6116C9.34545 22.6218 9.34075 22.6297 9.33198 22.6352C9.2181 22.7059 9.33137 22.9533 9.39137 23.0295C9.54412 23.223 9.78718 23.2667 10.0149 23.1954C10.296 23.1069 10.3403 22.8308 10.4527 22.592C11.4595 20.447 13.5791 19.0352 15.9653 18.9985C15.9772 18.9983 15.9947 19.0007 16.018 19.0058C16.0605 19.0153 16.1135 19 16.1417 19C16.2229 18.9992 16.2879 19.0001 16.3367 19.0028C17.6797 19.0789 18.8699 19.5332 19.9073 20.3656C20.7522 21.0438 21.3751 21.8896 21.7762 22.9031C21.8117 22.9921 21.8089 23.1256 21.9072 23.1969C22.0869 23.3276 22.3602 23.3329 22.5454 23.215C22.7625 23.0769 22.7836 22.8424 22.7796 22.5969C22.7784 22.5192 22.716 22.461 22.6927 22.3995C22.5626 22.0591 22.4395 21.7585 22.2736 21.434C21.5989 20.1138 20.5947 19.1295 19.2611 18.4811C19.0717 18.3889 18.8863 18.3047 18.7048 18.2286Z" stroke="#383A60" stroke-width="2"/>
<path d="M11.9719 13.719C11.9587 13.8023 11.9556 13.8866 11.9627 13.9722C12.0745 15.3212 12.8603 16.4955 14.0343 17.1552C14.7408 17.552 15.5658 17.7555 16.3743 17.6799C17.239 17.5993 17.997 17.2743 18.6484 16.7049C19.4444 16.0094 19.9051 15.124 20.0306 14.0487C20.0375 13.9879 20.0383 13.8781 20.033 13.7193" stroke="#383A60" stroke-width="2"/>
<path d="M20.0287 13.5665C20.0379 13.4741 20.0401 13.3974 20.0355 13.3363C20.0124 13.0316 19.9483 12.7237 19.8432 12.4125C19.522 11.4596 18.9342 10.7202 18.0799 10.1943C16.5429 9.24746 14.5813 9.46328 13.2652 10.6789C12.5859 11.3064 12.1653 12.0775 12.0037 12.9919C11.9698 13.1838 11.9581 13.3753 11.9685 13.5665" stroke="#383A60" stroke-width="2"/>
<path d="M15.2919 1H15.5659C15.1833 1.01694 14.8027 1.04582 14.4241 1.08663C12.5657 1.28724 10.8091 1.81112 9.15418 2.65827C6.77041 3.87878 4.73224 5.74918 3.30816 8.01602C2.07694 9.97541 1.33714 12.114 1.08878 14.4317C1.08265 14.4897 1.07541 14.5476 1.06704 14.6053C1.05327 14.6996 1.0548 14.8116 1.03918 14.9148C1.03143 14.9664 1.02735 15.0116 1.02694 15.0504C1.0251 15.2235 1.01612 15.3966 1 15.5699V15.1582C1.01388 15.0751 1.02153 15.0215 1.02296 14.9974C1.04071 14.7046 1.05857 14.4798 1.07653 14.3231C1.13898 13.7731 1.22888 13.2277 1.34622 12.6868C1.36418 12.604 1.41286 12.4143 1.49224 12.1178C1.62265 11.63 1.7502 11.2176 1.8749 10.8804C2.19296 10.0202 2.49296 9.36265 2.89122 8.65643C3.16102 8.17765 3.43969 7.73541 3.72724 7.32969C3.97827 6.97582 4.32571 6.52245 4.70776 6.08776C5.05765 5.68949 5.44673 5.31357 5.82694 4.93918C5.85918 4.90735 5.89214 4.87643 5.92582 4.84643C6.33316 4.48153 6.75878 4.13918 7.20265 3.81939C9.24939 2.3448 11.6463 1.39857 14.148 1.09827C14.4935 1.05684 14.8748 1.02408 15.2919 1Z" fill="white"/>
<path d="M15.5659 1H16.4307C16.546 1.0098 16.6611 1.01755 16.776 1.02327C20.8719 1.22622 24.7576 3.14898 27.411 6.27235C28.8531 7.96949 29.8697 9.89347 30.4609 12.0443C30.6734 12.8178 30.8217 13.6034 30.906 14.4011C30.9279 14.6083 30.9483 14.8156 30.9672 15.0232C30.9841 15.2096 30.9734 15.4441 31 15.6562V16.2792C30.9863 16.4771 30.9771 16.6753 30.9724 16.8737C30.97 16.9704 30.9486 17.0717 30.9415 17.1724C30.9328 17.3006 30.9284 17.3657 30.9284 17.3678C30.7527 19.1322 30.2399 20.8493 29.3791 22.4022C29.3226 22.5043 29.2665 22.6065 29.211 22.709C29.21 22.711 29.1836 22.7677 29.1317 22.8789C29.0577 23.0377 28.9431 23.1432 28.788 23.1954C28.4013 23.3255 28.0174 23.0803 27.9421 22.6912C27.9222 22.5881 27.9798 22.4378 28.0199 22.3646C28.893 20.7749 29.3916 18.9927 29.5214 17.1862C29.5441 16.8743 29.5689 16.5749 29.5517 16.2602L29.5438 15.8427C29.5621 15.6447 29.5655 15.4905 29.5539 15.3801C29.5465 15.3095 29.5338 15.136 29.5156 14.8597C29.4862 14.4152 29.4072 13.8873 29.2787 13.2761C28.9281 11.6127 28.2902 10.0691 27.3651 8.64541C26.8165 7.80051 26.0788 6.90571 25.2936 6.17133C22.8103 3.84816 19.5853 2.54041 16.1662 2.50061C16.1191 2.5 16.0704 2.51041 16.022 2.51439L15.9544 2.51745C15.9344 2.50398 15.9139 2.49735 15.8929 2.49755C15.1712 2.50571 14.5028 2.55908 13.8874 2.65765C7.78459 3.63388 3.05775 8.66592 2.49449 14.8444C2.47755 15.0293 2.46276 15.2143 2.4501 15.3994C2.43847 15.5667 2.44092 15.7341 2.45745 15.9014L2.45898 16.3646C2.44408 16.4901 2.4402 16.6237 2.44735 16.7653C2.48929 17.6218 2.5998 18.4719 2.79939 19.2982C4.12827 24.805 8.74245 28.9257 14.4008 29.598C14.7167 29.6355 15.1272 29.6651 15.6323 29.6867C15.977 29.7014 16.2624 29.7004 16.4886 29.6837C16.5284 29.672 16.5716 29.6681 16.6184 29.6717C16.6955 29.6799 16.8033 29.6789 16.9416 29.6687C18.0582 29.5868 19.1263 29.3779 20.1461 29.0417C21.5508 28.5787 22.8536 27.9161 24.0544 27.0541C24.0668 27.0451 24.0905 27.0204 24.1254 26.98C24.1821 26.9143 24.2616 26.8704 24.3639 26.8484C24.8374 26.7464 25.2816 27.1294 25.1769 27.6253C25.1488 27.7582 25.0803 27.8662 24.9715 27.9495C23.1426 29.3481 21.073 30.276 18.7628 30.7334C18.0313 30.8781 17.2399 30.9669 16.3885 31H15.5889C14.5372 30.9641 13.5234 30.8298 12.5472 30.5971C7.19745 29.3221 2.98643 25.2428 1.52316 19.9392C1.30357 19.1439 1.14959 18.2834 1.06122 17.3577C1.05327 17.2738 1.05357 17.166 1.04224 17.0705C1.03204 16.9854 1.02622 16.9142 1.0248 16.8568C1.02194 16.7279 1.01367 16.5974 1 16.4656V15.5699C1.01612 15.3966 1.0251 15.2235 1.02694 15.0504C1.02735 15.0116 1.03143 14.9664 1.03918 14.9148C1.0548 14.8116 1.05327 14.6996 1.06704 14.6053C1.07541 14.5476 1.08265 14.4897 1.08878 14.4317C1.33714 12.114 2.07694 9.97541 3.30816 8.01602C4.73224 5.74918 6.77041 3.87878 9.15418 2.65827C10.8091 1.81112 12.5657 1.28724 14.4241 1.08663C14.8027 1.04582 15.1833 1.01694 15.5659 1Z" fill="white"/>
<path d="M16.4307 1H16.727C17.2105 1.02878 17.6468 1.06888 18.036 1.12031C20.9766 1.50969 23.7491 2.79265 25.982 4.77265C26.0995 4.87714 26.2303 5.00031 26.3741 5.14214C26.6475 5.41153 26.9365 5.69378 27.1789 5.965C29.1739 8.19694 30.4627 10.952 30.8769 13.926C30.9242 14.266 30.9653 14.6882 30.9999 15.1924V15.6562C30.9733 15.4441 30.984 15.2096 30.9672 15.0232C30.9482 14.8156 30.9278 14.6083 30.906 14.4011C30.8217 13.6034 30.6733 12.8178 30.4609 12.0443C29.8696 9.89347 28.853 7.96949 27.411 6.27235C24.7575 3.14898 20.8719 1.22622 16.776 1.02327C16.6611 1.01755 16.546 1.0098 16.4307 1Z" fill="white"/>
<path d="M15.9549 2.51746C15.9155 2.52358 15.8886 2.52664 15.8743 2.52664C15.6187 2.52787 15.3579 2.52879 15.109 2.54593C13.5475 2.65522 11.9866 3.02318 10.5585 3.67093C10.3565 3.76246 10.1443 3.85215 9.95546 3.94828C8.9824 4.44399 8.10822 5.02103 7.33291 5.6794C6.4724 6.40981 5.77291 7.16011 5.12944 8.02736C3.43414 10.312 2.50904 13.0545 2.45791 15.9014C2.44138 15.7341 2.43893 15.5667 2.45057 15.3994C2.46322 15.2143 2.47802 15.0293 2.49495 14.8444C3.05822 8.66593 7.78506 3.63389 13.8879 2.65767C14.5032 2.55909 15.1717 2.50573 15.8933 2.49756C15.9143 2.49736 15.9349 2.50399 15.9549 2.51746Z" fill="white"/>
<path d="M29.5434 15.8426C29.5186 14.8991 29.4155 13.9844 29.2061 13.0541C28.9895 12.0931 28.6733 11.1662 28.2574 10.2736C28.2394 10.2352 28.221 10.1969 28.202 10.1588C27.8613 9.4746 27.4697 8.80541 27.0222 8.18551C25.6957 6.34817 24.0149 4.92051 21.98 3.90255C21.872 3.84868 21.7456 3.80153 21.6292 3.74796C20.1072 3.04858 18.5087 2.64725 16.8338 2.54398C16.5532 2.52684 16.2723 2.52123 15.9911 2.52715C15.989 2.52715 15.9881 2.52613 15.9883 2.52409C15.9885 2.51674 15.9896 2.51653 15.9917 2.52347C15.9921 2.52449 15.9928 2.5249 15.9938 2.5247C16.0032 2.52368 16.0125 2.52021 16.0217 2.51429C16.07 2.51031 16.1187 2.4999 16.1659 2.50051C19.5849 2.54031 22.8099 3.84806 25.2932 6.17123C26.0784 6.90562 26.8162 7.80041 27.3647 8.64531C28.2898 10.069 28.9277 11.6126 29.2783 13.276C29.4069 13.8872 29.4859 14.4151 29.5152 14.8596C29.5334 15.1359 29.5462 15.3094 29.5535 15.38C29.5651 15.4904 29.5618 15.6446 29.5434 15.8426Z" fill="white"/>
<path d="M18.7494 18.2355C18.7514 18.237 18.7576 18.2371 18.768 18.2358C18.7748 18.2352 18.781 18.236 18.7867 18.2383C19.1614 18.392 19.4797 18.5458 19.7415 18.6999C20.685 19.2554 21.4431 19.9994 22.016 20.9319C22.2893 21.377 22.4972 21.7947 22.6399 22.1851C22.6821 22.3004 22.7208 22.3907 22.7559 22.456C22.779 22.4991 22.792 22.5398 22.7951 22.5782C22.8122 22.7885 22.803 23.0753 22.6022 23.207C22.393 23.3443 22.1745 23.358 21.9465 23.248C21.8779 23.2149 21.833 23.161 21.8118 23.0864C21.7722 22.9478 21.7221 22.8128 21.6615 22.6814C21.5167 22.367 21.356 22.0581 21.1644 21.7746C20.3302 20.5394 19.1133 19.6556 17.6831 19.243C17.2331 19.1132 16.774 19.0428 16.3056 19.0318C15.9269 19.0229 15.5427 19.0281 15.1754 19.0832C14.0064 19.2581 12.9712 19.7345 12.0698 20.5125C11.5575 20.9545 11.1377 21.4451 10.8104 21.9843C10.6402 22.2647 10.4717 22.6016 10.305 22.9948C10.2621 23.0958 10.1556 23.1663 10.0469 23.2064C9.85529 23.2774 9.70039 23.2774 9.51855 23.1693C9.38447 23.0897 9.26447 22.9376 9.26416 22.7759C9.26416 22.7316 9.25712 22.6627 9.29631 22.6321C9.30365 22.6264 9.30825 22.619 9.31008 22.61C9.33274 22.5064 9.36661 22.3948 9.41171 22.2754C9.60457 21.7657 9.82131 21.3007 10.1195 20.8388C10.4031 20.3996 10.7298 19.995 11.0994 19.625C11.1494 19.5748 11.2082 19.5218 11.276 19.4658C11.3372 19.4154 11.3981 19.3648 11.4588 19.314C11.8569 18.9793 12.2861 18.692 12.7463 18.452C12.8727 18.3861 13.0426 18.3231 13.1868 18.2469C13.2092 18.2352 13.2333 18.2316 13.2575 18.2267C13.2596 18.2263 13.2616 18.2252 13.2631 18.2237C13.2646 18.2221 13.2656 18.2202 13.2659 18.218C13.2663 18.2159 13.266 18.2137 13.2651 18.2117C13.2642 18.2097 13.2627 18.2079 13.2609 18.2068C12.0529 17.4598 11.1753 16.3057 10.8459 14.9245C10.7149 14.3745 10.6723 13.8149 10.7182 13.2457C10.7231 13.1845 10.7272 13.1233 10.7305 13.0621C10.7338 12.9984 10.7406 12.9373 10.751 12.8787C10.7761 12.7388 10.7963 12.5919 10.8272 12.4608C11.1888 10.9311 12.1282 9.69564 13.507 8.96217C14.2668 8.55809 15.1494 8.34656 16.0157 8.34717C16.3264 8.34717 16.5508 8.37992 16.8174 8.41819C17.4689 8.51125 18.0798 8.72115 18.6502 9.04788C19.9546 9.79513 20.8944 11.0873 21.1947 12.5643C21.2807 12.9871 21.3073 13.4242 21.2939 13.9569C21.2841 14.345 21.2074 14.7707 21.064 15.234C20.7012 16.404 19.9255 17.4727 18.8669 18.1192C18.8329 18.14 18.8051 18.1679 18.7567 18.1807C18.751 18.1823 18.7459 18.1855 18.742 18.1899C18.7381 18.1944 18.7356 18.1999 18.7349 18.2057C18.7341 18.2115 18.735 18.2175 18.7376 18.2228C18.7402 18.2281 18.7443 18.2325 18.7494 18.2355ZM18.7044 18.2288C18.6846 18.2204 18.6838 18.2106 18.7019 18.1994C19.2656 17.8508 19.7441 17.4309 20.1373 16.9397C21.3254 15.4556 21.6079 13.3814 20.8784 11.6264C19.9546 9.40329 17.6406 8.07472 15.2421 8.42584C12.8908 8.76992 11.0694 10.6125 10.7681 12.9702C10.7507 13.1083 10.729 13.2399 10.7262 13.3783C10.7205 13.6807 10.7219 13.903 10.7305 14.045C10.7448 14.2785 10.7902 14.56 10.8667 14.8896C11.1912 16.2855 12.071 17.4617 13.3013 18.1991C13.3043 18.2009 13.3067 18.2036 13.3083 18.2067C13.3098 18.2098 13.3105 18.2133 13.3102 18.2168C13.3099 18.2203 13.3087 18.2236 13.3066 18.2264C13.3046 18.2292 13.3018 18.2314 13.2986 18.2328C11.4239 18.9956 10.0729 20.4944 9.3961 22.3988C9.3659 22.4839 9.34906 22.5549 9.34559 22.6119C9.34498 22.6221 9.34029 22.6299 9.33151 22.6354C9.21763 22.7061 9.3309 22.9535 9.3909 23.0297C9.54365 23.2232 9.78671 23.267 10.0145 23.1956C10.2955 23.1072 10.3399 22.831 10.4522 22.5923C11.4591 20.4473 13.5787 19.0354 15.9649 18.9987C15.9767 18.9985 15.9943 19.0009 16.0175 19.006C16.0601 19.0155 16.113 19.0002 16.1412 19.0002C16.2224 18.9994 16.2874 19.0003 16.3362 19.003C17.6793 19.0791 18.8695 19.5334 19.9068 20.3658C20.7517 21.044 21.3747 21.8898 21.7757 22.9033C21.8112 22.9924 21.8084 23.1258 21.9067 23.1972C22.0864 23.3279 22.3598 23.3331 22.545 23.2152C22.762 23.0772 22.7831 22.8427 22.7792 22.5972C22.7779 22.5194 22.7155 22.4613 22.6922 22.3997C22.5621 22.0593 22.4391 21.7587 22.2731 21.4342C21.5984 20.114 20.5943 19.1297 19.2606 18.4814C19.0712 18.3891 18.8858 18.3049 18.7044 18.2288Z" fill="white"/>
<path d="M18.7048 18.2286C18.8863 18.3047 19.0717 18.3889 19.2611 18.4811C20.5947 19.1295 21.5989 20.1138 22.2736 21.434C22.4395 21.7585 22.5626 22.0591 22.6927 22.3995C22.716 22.461 22.7784 22.5192 22.7796 22.5969C22.7836 22.8424 22.7625 23.0769 22.5454 23.215C22.3602 23.3329 22.0869 23.3276 21.9072 23.1969C21.8089 23.1256 21.8117 22.9921 21.7762 22.9031C21.3751 21.8896 20.7522 21.0438 19.9073 20.3656C18.8699 19.5332 17.6797 19.0789 16.3367 19.0028C16.2879 19.0001 16.2229 18.9992 16.1417 19C16.1135 19 16.0605 19.0153 16.018 19.0058C15.9947 19.0007 15.9772 18.9983 15.9653 18.9985C13.5791 19.0352 11.4595 20.447 10.4527 22.592C10.3403 22.8308 10.296 23.1069 10.0149 23.1954C9.78718 23.2667 9.54412 23.223 9.39137 23.0295C9.33137 22.9533 9.2181 22.7059 9.33198 22.6352C9.34075 22.6297 9.34545 22.6218 9.34606 22.6116C9.34953 22.5547 9.36637 22.4837 9.39657 22.3986C10.0734 20.4942 11.4243 18.9954 13.299 18.2325C13.3022 18.2312 13.305 18.229 13.3071 18.2262C13.3092 18.2234 13.3104 18.22 13.3107 18.2166C13.311 18.2131 13.3103 18.2096 13.3087 18.2065C13.3071 18.2033 13.3047 18.2007 13.3018 18.1989C12.0715 17.4614 11.1917 16.2853 10.8672 14.8894C10.7907 14.5598 10.7452 14.2783 10.731 14.0448C10.7224 13.9028 10.721 13.6805 10.7267 13.3781C10.7294 13.2397 10.7512 13.1081 10.7686 12.97C11.0698 10.6122 12.8913 8.76969 15.2426 8.42561C17.6411 8.07449 19.955 9.40306 20.8789 11.6261C21.6084 13.3811 21.3259 15.4554 20.1378 16.9395C19.7445 17.4307 19.2661 17.8506 18.7024 18.1992C18.6842 18.2104 18.685 18.2202 18.7048 18.2286ZM11.9689 13.5666L11.972 13.7191C11.9587 13.8023 11.9557 13.8867 11.9628 13.9722C12.0745 15.3213 12.8603 16.4956 14.0343 17.1553C14.7409 17.552 15.5659 17.7556 16.3743 17.68C17.239 17.5994 17.9971 17.2744 18.6485 16.705C19.4444 16.0095 19.9051 15.1241 20.0307 14.0488C20.0376 13.988 20.0384 13.8782 20.0331 13.7194L20.0291 13.5666C20.0383 13.4742 20.0406 13.3974 20.0359 13.3364C20.0128 13.0317 19.9487 12.7238 19.8436 12.4125C19.5224 11.4597 18.9346 10.7203 18.0803 10.1944C16.5433 9.24755 14.5817 9.46336 13.2657 10.679C12.5863 11.3065 12.1658 12.0775 12.0041 12.992C11.9702 13.1839 11.9585 13.3754 11.9689 13.5666Z" fill="white"/>
<path d="M20.0287 13.5665C20.0148 13.4525 20.0021 13.3391 19.9905 13.2264C19.916 12.4966 19.6584 11.8406 19.2178 11.2584C18.6678 10.5321 17.9641 10.0411 17.1068 9.78562C16.1085 9.48838 14.9872 9.61603 14.0795 10.1221C13.0084 10.7193 12.2459 11.7613 12.0285 12.9849C12.0146 13.0631 11.9946 13.257 11.9685 13.5665C11.9581 13.3753 11.9698 13.1838 12.0037 12.9919C12.1653 12.0775 12.5859 11.3064 13.2652 10.6789C14.5813 9.46328 16.5429 9.24746 18.0799 10.1943C18.9342 10.7202 19.522 11.4596 19.8432 12.4125C19.9483 12.7237 20.0124 13.0316 20.0355 13.3363C20.0401 13.3974 20.0379 13.4741 20.0287 13.5665Z" fill="white"/>
<path d="M11.9719 13.7192C11.9891 13.8965 11.9943 14.0878 12.0206 14.2497C12.3286 16.1419 13.9259 17.5182 15.8128 17.6713C16.1253 17.6966 16.4583 17.6712 16.812 17.5951C17.4967 17.4479 18.1012 17.1435 18.6255 16.6819C19.3663 16.0296 19.818 15.2186 19.9807 14.2488C20.0073 14.0912 20.0067 13.8968 20.033 13.7195C20.0383 13.8783 20.0375 13.9881 20.0306 14.0489C19.9051 15.1242 19.4444 16.0096 18.6484 16.7052C17.997 17.2745 17.239 17.5995 16.3743 17.6802C15.5658 17.7558 14.7408 17.5522 14.0343 17.1555C12.8603 16.4958 12.0745 15.3215 11.9627 13.9724C11.9556 13.8869 11.9587 13.8025 11.9719 13.7192Z" fill="white"/>
<path d="M2.45846 16.3647C2.46948 16.5506 2.46795 16.7587 2.47714 16.9191C2.51448 17.5751 2.58948 18.178 2.70214 18.728C2.79602 19.1852 2.87571 19.5244 2.94122 19.7459C2.99979 19.944 3.06122 20.1413 3.12551 20.3376C3.72408 22.1609 4.6652 23.7846 5.94887 25.2089C6.08744 25.3628 6.32255 25.6008 6.65418 25.9228C6.82275 26.0863 6.97244 26.2248 7.10326 26.3385C7.81061 26.9528 8.57489 27.4876 9.39612 27.9429C9.50346 28.0025 9.61061 28.0623 9.71755 28.1223C9.82775 28.1843 9.93683 28.2401 10.0448 28.2894C10.1885 28.3554 10.3324 28.4208 10.4767 28.4857C11.2114 28.8169 11.969 29.0806 12.7494 29.2767C13.1317 29.3728 13.5585 29.4576 13.9629 29.5188C14.3865 29.5829 14.7236 29.6218 14.974 29.6355C15.3086 29.6538 15.6444 29.6835 15.9747 29.6838C16.1459 29.6838 16.317 29.6838 16.4881 29.6838C16.2619 29.7006 15.9765 29.7016 15.6318 29.6869C15.1267 29.6653 14.7162 29.6357 14.4003 29.5981C8.74193 28.9259 4.12775 24.8052 2.79887 19.2983C2.59928 18.4721 2.48877 17.622 2.44683 16.7655C2.43969 16.6238 2.44357 16.4903 2.45846 16.3647Z" fill="white"/>
<path d="M15.5889 31.0002H15.1888C14.6445 30.9645 14.1522 30.9133 13.712 30.8465C12.3434 30.6396 10.9686 30.226 9.69418 29.6377C8.21959 28.9565 6.82551 28.0183 5.65765 26.8893C5.33031 26.5728 5.08245 26.3221 4.91408 26.1375C2.61204 23.6089 1.23173 20.3986 1.01561 16.9798C1.01337 16.9445 1.00816 16.9101 1 16.8766V16.4658C1.01367 16.5977 1.02194 16.7281 1.0248 16.857C1.02622 16.9144 1.03204 16.9856 1.04224 17.0707C1.05357 17.1662 1.05327 17.274 1.06122 17.3579C1.14959 18.2836 1.30357 19.1441 1.52316 19.9394C2.98643 25.243 7.19745 29.3224 12.5472 30.5974C13.5234 30.83 14.5372 30.9643 15.5889 31.0002Z" fill="white"/>
<path d="M16.7615 31.0001H16.3887C17.2401 30.967 18.0315 30.8782 18.763 30.7335C21.0732 30.2761 23.1428 29.3482 24.9717 27.9496C25.0805 27.8663 25.149 27.7583 25.1771 27.6254C25.2818 27.1295 24.8377 26.7465 24.3641 26.8485C24.2618 26.8705 24.1823 26.9144 24.1256 26.9801C24.0907 27.0205 24.067 27.0452 24.0546 27.0542C22.8538 27.9162 21.551 28.5788 20.1463 29.0418C19.1265 29.378 18.0584 29.5869 16.9418 29.6688C16.8035 29.679 16.6957 29.68 16.6186 29.6718C17.1063 29.6433 17.5227 29.6036 17.8675 29.5528C19.418 29.3246 20.881 28.8492 22.2567 28.1265C22.822 27.8294 23.3789 27.49 23.9272 27.1084C23.9655 27.0817 24.0448 27.0248 24.0791 26.9853C24.1254 26.9324 24.1762 26.8946 24.2315 26.8717C24.6552 26.6966 25.1361 26.9072 25.2111 27.3768C25.2503 27.6236 25.1669 27.8256 24.961 27.983C24.3369 28.4603 23.6785 28.8844 22.9856 29.2552C21.0549 30.2887 18.9485 30.8795 16.7615 31.0001Z" fill="white"/>
</svg>
