<?xml version="1.0" encoding="UTF-8" standalone="no"?>
<!DOCTYPE svg PUBLIC "-//W3C//DTD SVG 1.1//EN" "http://www.w3.org/Graphics/SVG/1.1/DTD/svg11.dtd">
<svg xmlns="http://www.w3.org/2000/svg" version="1.1" viewBox="0.00 0.00 1024.00 1024.00">
<path fill="#000000" d="
  M 91.52 709.52
  C 301.05 499.68 510.60 289.83 720.42 80.28
  Q 730.45 70.26 735.09 66.72
  C 762.18 46.05 800.77 45.38 828.64 65.30
  Q 834.00 69.13 843.51 78.64
  Q 893.26 128.37 942.98 178.12
  Q 953.36 188.50 956.66 192.70
  C 977.98 219.82 978.88 258.96 958.70 287.15
  Q 954.88 292.49 945.36 302.02
  Q 630.34 617.04 315.28 932.04
  C 310.10 937.22 304.92 938.69 297.05 939.88
  Q 189.89 956.07 82.73 972.26
  Q 74.02 973.58 69.74 972.77
  C 59.76 970.88 51.80 962.03 50.88 951.76
  Q 50.60 948.61 51.71 941.28
  Q 68.20 832.14 84.72 723.00
  Q 85.91 715.13 91.52 709.52
  Z
  M 916.10 264.59
  C 929.70 251.02 929.07 231.20 915.82 217.92
  Q 861.03 162.96 806.27 107.98
  C 796.23 97.90 780.66 94.90 768.27 101.42
  Q 763.67 103.83 754.97 112.54
  Q 718.03 149.48 681.09 186.41
  A 0.37 0.37 0.0 0 0 681.09 186.94
  L 836.97 342.81
  A 0.54 0.54 0.0 0 0 837.73 342.81
  Q 876.87 303.73 916.10 264.59
  Z
  M 803.6111 376.9682
  A 0.47 0.47 0.0 0 0 803.6111 376.3035
  L 647.7365 220.4289
  A 0.47 0.47 0.0 0 0 647.0718 220.4289
  L 141.9289 725.5718
  A 0.47 0.47 0.0 0 0 141.9289 726.2365
  L 297.8035 882.1111
  A 0.47 0.47 0.0 0 0 298.4682 882.1111
  L 803.6111 376.9682
  Z
  M 247.71 899.57
  A 0.32 0.32 0.0 0 0 247.89 899.03
  L 124.98 776.12
  A 0.32 0.32 0.0 0 0 124.44 776.30
  L 102.54 921.11
  A 0.32 0.32 0.0 0 0 102.90 921.47
  L 247.71 899.57
  Z"
/>
</svg>
