<?xml version="1.0" encoding="UTF-8" standalone="no"?>
<!DOCTYPE svg PUBLIC "-//W3C//DTD SVG 1.1//EN" "http://www.w3.org/Graphics/SVG/1.1/DTD/svg11.dtd">
<svg xmlns="http://www.w3.org/2000/svg" version="1.1" viewBox="0.00 0.00 1024.00 1024.00">
<path fill="#000000" d="
  M 555.27 101.26
  Q 555.11 162.35 555.25 223.55
  Q 555.27 233.25 556.38 237.87
  C 559.91 252.64 572.05 264.57 586.60 267.98
  Q 591.92 269.23 606.50 269.22
  Q 633.01 269.21 659.44 269.22
  Q 659.99 269.22 659.60 269.61
  L 595.59 332.82
  Q 595.24 333.17 594.73 333.17
  C 551.69 333.30 491.67 316.88 491.62 262.25
  Q 491.54 170.25 491.58 78.32
  A 0.32 0.32 0.0 0 0 491.26 78.00
  Q 321.39 77.99 151.52 78.01
  Q 138.93 78.01 133.60 79.43
  C 119.36 83.22 107.74 95.08 104.40 109.33
  Q 103.22 114.40 103.22 129.25
  Q 103.22 516.75 103.16 904.25
  C 103.16 923.10 115.35 939.62 133.63 944.52
  Q 139.16 946.00 151.50 946.00
  Q 431.00 946.00 710.50 945.94
  C 729.19 945.94 746.29 933.43 750.70 915.14
  Q 752.00 909.71 752.00 895.25
  Q 752.00 765.74 752.00 636.07
  A 1.09 1.09 0.0 0 1 752.32 635.30
  L 823.98 563.23
  Q 824.42 562.79 824.42 563.41
  Q 824.40 738.32 824.42 913.49
  Q 824.42 928.13 823.83 933.48
  C 819.67 970.78 790.36 1000.92 752.97 1005.69
  Q 747.26 1006.42 733.00 1006.42
  Q 432.37 1006.41 131.74 1006.42
  Q 117.55 1006.42 111.77 1005.70
  C 76.13 1001.23 47.21 973.70 41.15 938.18
  Q 40.01 931.47 40.01 918.25
  Q 39.99 511.75 40.01 105.24
  Q 40.01 92.11 41.18 85.32
  C 47.03 51.36 73.86 24.40 107.82 18.43
  Q 114.63 17.23 127.75 17.23
  Q 340.60 17.21 553.52 17.22
  A 1.38 1.32 65.1 0 1 554.42 17.57
  L 742.44 186.06
  A 0.45 0.45 0.0 0 1 742.46 186.72
  L 698.85 230.33
  Q 698.40 230.78 697.92 230.35
  L 555.58 101.13
  A 0.19 0.18 21.5 0 0 555.27 101.26
  Z"
/>
<path fill="#000000" d="
  M 978.08 327.80
  C 972.87 340.93 965.72 349.49 954.67 360.55
  Q 798.41 517.00 642.05 673.57
  A 2.98 2.86 -76.5 0 1 640.99 674.25
  L 409.26 760.26
  A 0.23 0.23 0.0 0 1 408.96 759.97
  L 496.16 529.45
  A 3.37 3.26 -13.3 0 1 496.93 528.25
  Q 652.43 372.75 808.14 217.04
  Q 818.17 207.01 822.78 203.44
  C 850.91 181.63 891.38 180.56 920.53 201.66
  Q 925.70 205.40 935.42 214.95
  Q 948.39 227.68 961.27 240.48
  C 983.68 262.74 989.69 298.54 978.08 327.80
  Z
  M 831.49 276.67
  L 892.82 338.43
  A 0.55 0.55 0.0 0 0 893.60 338.44
  L 914.07 318.11
  A 30.72 30.31 45.2 0 0 913.93 274.96
  L 895.11 256.01
  A 30.72 30.31 45.2 0 0 851.96 255.57
  L 831.50 275.89
  A 0.55 0.55 0.0 0 0 831.49 276.67
  Z
  M 804.7601 303.1560
  A 0.52 0.52 0.0 0 0 804.0247 303.1560
  L 563.5660 543.6147
  A 0.52 0.52 0.0 0 0 563.5660 544.3501
  L 625.2399 606.0240
  A 0.52 0.52 0.0 0 0 625.9753 606.0240
  L 866.4340 365.5653
  A 0.52 0.52 0.0 0 0 866.4340 364.8299
  L 804.7601 303.1560
  Z
  M 527.17 581.45
  Q 508.82 629.95 490.57 678.36
  A 0.23 0.23 0.0 0 0 490.86 678.65
  Q 539.34 660.63 587.79 642.60
  C 591.31 641.29 593.18 638.91 595.66 636.32
  A 0.52 0.52 0.0 0 0 595.66 635.60
  L 534.02 573.97
  A 0.61 0.59 44.3 0 0 533.16 573.97
  C 530.81 576.41 528.43 578.11 527.17 581.45
  Z"
/>
<rect fill="#000000" x="183.57" y="416.78" width="252.02" height="57.64" rx="0.48"/>
<path fill="#000000" d="
  M 409.74 632.00
  L 183.97 632.00
  A 0.38 0.38 0.0 0 1 183.59 631.62
  L 183.55 574.80
  A 0.38 0.38 0.0 0 1 183.93 574.42
  L 431.45 574.41
  A 0.38 0.38 0.0 0 1 431.80 574.93
  L 410.09 631.76
  A 0.38 0.38 0.0 0 1 409.74 632.00
  Z"
/>
<path fill="#000000" d="
  M 437.13 789.87
  L 634.95 718.52
  A 0.20 0.20 0.0 0 1 635.22 718.71
  L 635.22 789.85
  Q 635.22 790.42 634.65 790.42
  L 437.23 790.41
  Q 435.63 790.41 437.13 789.87
  Z"
/>
<path fill="#000000" d="
  M 364.13 789.22
  L 183.98 789.22
  A 0.39 0.39 0.0 0 1 183.59 788.83
  L 183.56 731.95
  A 0.39 0.39 0.0 0 1 183.95 731.56
  L 385.05 731.57
  A 0.39 0.39 0.0 0 1 385.42 732.09
  L 364.49 788.96
  A 0.39 0.39 0.0 0 1 364.13 789.22
  Z"
/>
</svg>
