<?xml version="1.0" encoding="UTF-8" standalone="no"?>
<!DOCTYPE svg PUBLIC "-//W3C//DTD SVG 1.1//EN" "http://www.w3.org/Graphics/SVG/1.1/DTD/svg11.dtd">
<svg xmlns="http://www.w3.org/2000/svg" version="1.1" viewBox="0.00 0.00 1024.00 1024.00">
<rect fill="#000000" x="-24.22" y="-96.76" transform="translate(233.79,124.79) rotate(0.1)" width="48.44" height="193.52" rx="23.21"/>
<rect fill="#000000" x="-24.23" y="-96.76" transform="translate(621.00,124.79) rotate(0.1)" width="48.46" height="193.52" rx="23.22"/>
<path fill="#000000" d="
  M 124.84 150.59
  C 103.10 155.94 88.36 175.15 88.36 197.75
  Q 88.41 512.00 88.49 826.25
  C 88.49 849.40 103.99 869.39 126.57 874.10
  Q 131.94 875.22 146.51 875.22
  Q 301.66 875.22 457.85 875.22
  Q 458.45 875.22 458.71 875.75
  Q 471.07 901.11 488.11 923.58
  A 0.26 0.26 0.0 0 1 487.90 924.00
  Q 317.24 923.99 146.49 924.01
  Q 132.39 924.02 126.53 923.39
  C 81.45 918.62 45.52 883.19 40.62 837.98
  Q 40.00 832.18 40.00 817.99
  Q 40.00 510.74 40.00 203.49
  Q 40.00 190.49 41.04 183.56
  C 48.06 136.55 88.27 100.77 136.00 100.78
  Q 160.52 100.78 185.00 100.78
  A 0.23 0.22 -90.0 0 1 185.22 101.01
  L 185.22 148.76
  A 0.47 0.47 0.0 0 1 184.75 149.23
  Q 162.24 149.19 139.79 149.24
  Q 130.29 149.25 124.84 150.59
  Z"
/>
<rect fill="#000000" x="282.00" y="100.78" width="290.42" height="48.44" rx="0.27"/>
<path fill="#000000" d="
  M 766.47 198.26
  C 766.46 170.51 745.23 148.80 717.50 148.82
  Q 693.82 148.84 670.07 148.74
  Q 669.58 148.74 669.58 148.24
  L 669.61 101.09
  A 0.31 0.31 0.0 0 1 669.92 100.78
  Q 690.30 100.80 710.76 100.78
  Q 723.96 100.77 730.71 101.67
  C 773.36 107.37 807.34 140.27 813.74 183.05
  Q 814.76 189.90 814.76 203.00
  Q 814.80 327.24 814.77 451.35
  Q 814.77 451.96 814.19 451.79
  C 798.43 447.44 782.99 444.64 766.93 441.96
  Q 766.41 441.87 766.41 441.34
  Q 766.52 319.78 766.47 198.26
  Z"
/>
<rect fill="#000000" x="282.02" y="342.41" width="411.98" height="48.80" rx="22.88"/>
<rect fill="#000000" x="185.81" y="343.01" width="47.56" height="47.56" rx="21.65"/>
<path fill="#000000" d="
  M 300.40 535.87
  C 277.54 530.92 275.25 497.58 296.96 489.55
  Q 301.18 487.99 313.23 487.99
  Q 439.23 488.00 564.93 488.00
  Q 566.05 488.00 565.11 488.60
  C 544.25 502.12 526.01 518.09 508.70 536.05
  Q 508.35 536.41 507.84 536.41
  Q 410.74 536.41 313.66 536.41
  Q 302.86 536.41 300.40 535.87
  Z"
/>
<path fill="#000000" d="
  M 983.98 742.01
  A 254.00 254.00 0.0 0 1 729.98 996.01
  A 254.00 254.00 0.0 0 1 475.98 742.01
  A 254.00 254.00 0.0 0 1 729.98 488.01
  A 254.00 254.00 0.0 0 1 983.98 742.01
  Z
  M 935.57 742.01
  A 205.59 205.59 0.0 0 0 729.98 536.42
  A 205.59 205.59 0.0 0 0 524.39 742.01
  A 205.59 205.59 0.0 0 0 729.98 947.60
  A 205.59 205.59 0.0 0 0 935.57 742.01
  Z"
/>
<rect fill="#000000" x="185.81" y="488.62" width="47.56" height="47.56" rx="21.64"/>
<path fill="#000000" d="
  M 742.52 739.37
  Q 792.73 759.05 842.97 778.66
  Q 852.11 782.23 855.36 785.12
  C 870.32 798.41 862.24 827.49 840.58 827.08
  Q 836.83 827.00 831.17 824.80
  Q 770.48 801.15 709.82 777.49
  C 706.88 776.35 701.13 773.04 699.14 770.52
  C 695.27 765.63 693.58 758.57 693.58 752.43
  Q 693.57 696.58 693.57 640.72
  Q 693.57 628.61 694.97 624.43
  C 701.86 603.84 733.42 604.18 740.61 624.63
  Q 742.02 628.65 742.01 637.04
  Q 741.93 687.85 742.03 738.66
  Q 742.03 739.18 742.52 739.37
  Z"
/>
<rect fill="#000000" x="-23.79" y="-23.97" transform="translate(209.59,657.40) rotate(-0.2)" width="47.58" height="47.94" rx="21.66"/>
<path fill="#000000" d="
  M 447.76 633.76
  C 442.12 649.56 436.99 664.81 433.62 681.25
  A 0.41 0.41 0.0 0 1 433.22 681.57
  Q 369.75 681.58 306.25 681.64
  C 274.79 681.67 274.09 633.18 305.75 633.20
  Q 376.63 633.24 447.37 633.21
  Q 447.96 633.21 447.76 633.76
  Z"
/>
</svg>
