<svg width="213" height="213" viewBox="0 0 213 213" fill="none" xmlns="http://www.w3.org/2000/svg">
<path d="M187.544 143.232C187.527 143.28 187.538 143.287 187.575 143.252C187.794 143.051 187.988 142.806 188.155 142.518C201.164 120.181 203.911 93.0745 196.683 68.6273C180.316 13.2694 117.304 -14.4276 65.3288 10.9489C16.0544 35.0059 -2.24764 95.5542 25.0643 143.011C25.1088 143.09 25.1721 143.11 25.2542 143.073L25.3723 143.011C25.3826 143.008 25.386 143.003 25.3826 142.996C2.34713 86.9037 42.2112 24.6305 102.888 22.2125C145.319 20.5234 183.319 49.5911 192.185 91.2264C195.94 108.839 194.393 126.174 187.544 143.232Z" stroke="#A2A2A2" stroke-width="2"/>
<path d="M83.8834 180.236C86.796 177.901 87.8638 174.724 87.0869 170.702C86.132 165.774 83.2314 163.261 78.385 163.166C71.1002 163.022 67.5938 167.796 68.179 174.763C68.754 181.534 74.3447 185.842 80.9571 186.432C91.4249 187.372 98.104 182.15 102.298 173.125C104.424 168.549 105.627 163.708 105.907 158.602C105.921 158.321 106.068 158.179 106.349 158.176C116.18 158.006 124.856 153.894 129.42 144.858C132.562 138.647 132.983 130.571 130.339 124.123C126.951 115.871 120.578 111.466 111.221 110.908C111.05 110.898 110.973 110.808 110.99 110.636L112.776 94.3263C112.797 94.138 112.889 93.9977 113.054 93.9053C123.352 88.1246 131.766 79.5152 136.351 68.9139C140.232 59.9246 147.666 37.4384 136.608 30.4667C135.358 29.6761 134.469 29.3202 133.938 29.3989C116.088 32.1095 109.932 67.2762 108.331 81.2453C108.318 81.3444 108.279 81.4386 108.217 81.5181C108.154 81.5976 108.071 81.6594 107.976 81.6971C89.5203 88.905 65.0114 104.887 68.292 128.076C70.6946 145.069 82.6718 156.425 99.7007 158.145C99.8752 158.162 99.9556 158.259 99.9419 158.437C99.2797 167.124 94.8595 180.343 83.9501 180.42C83.755 180.42 83.7328 180.359 83.8834 180.236Z" stroke="#808080" stroke-width="2"/>
<path d="M197.461 52.9799C197.423 52.9148 197.37 52.8618 197.301 52.8207C197.288 52.8104 197.284 52.8139 197.291 52.831C205.201 71.2272 207.557 90.1795 204.36 109.688C196.762 156.01 156.59 190.807 109.693 192.23C79.2185 193.154 50.5718 180.453 30.8631 157.248C6.04622 128.031 0.588967 88.357 15.5694 53.1287C15.59 53.0843 15.578 53.05 15.5335 53.0261H15.5284C15.4839 53.0055 15.4497 53.0158 15.4257 53.0569C-18.17 111.115 9.43966 184.077 72.0825 206.065C89.9944 212.354 110.006 213.484 128.303 209.566C198.621 194.504 233.865 115.268 197.461 52.9799Z" stroke="#B3B3B3" stroke-width="2"/>
<path d="M130.609 47.5054C120.382 51.1452 116.27 69.4268 114.976 78.7292C114.942 78.9825 115.041 79.0544 115.274 78.9449C125.86 73.9548 133.191 64.7139 134.054 53.0037C134.177 51.3095 133.376 46.5197 130.609 47.5054Z" stroke="#808080" stroke-width="2"/>
<path d="M92.387 140.789C91.5143 141.377 90.5987 141.347 89.6404 140.696C84.7274 137.359 84.0805 130.516 85.251 125.259C87.2224 116.403 96.3195 111.223 104.991 110.828C105.141 110.821 105.227 110.744 105.247 110.597L107.208 96.4428C107.211 96.4233 107.209 96.4034 107.201 96.3853C107.194 96.3671 107.181 96.3514 107.166 96.3397C107.15 96.3281 107.131 96.321 107.111 96.3193C107.092 96.3175 107.072 96.3212 107.054 96.3298C96.6635 101.171 86.8784 108.369 79.958 117.599C78.0277 120.176 76.8692 122.019 76.4825 123.128C73.9053 130.531 75.851 137.832 81.6163 143.068C86.7142 147.694 93.5011 151.226 100.463 151.575C100.537 151.578 100.609 151.552 100.666 151.504C100.722 151.455 100.758 151.387 100.765 151.313L103.984 121.804C104.001 121.646 103.931 121.568 103.774 121.568C101.956 121.568 100.522 121.744 99.4717 122.096C94.61 123.744 90.5286 128.699 90.8571 134.12C90.9838 136.167 91.5348 138.239 92.5102 140.337C92.5992 140.522 92.5582 140.672 92.387 140.789Z" stroke="#808080" stroke-width="2"/>
<path d="M107.271 150.743C111.286 149.128 114.487 146.758 116.876 143.633C119.905 139.675 120.259 135.778 119.063 131.034C117.852 126.219 114.836 123.176 110.017 121.907C109.993 121.901 109.968 121.9 109.944 121.904C109.92 121.909 109.896 121.918 109.876 121.932C109.856 121.946 109.838 121.965 109.826 121.986C109.813 122.007 109.805 122.031 109.802 122.055L106.824 150.41C106.818 150.465 106.827 150.522 106.849 150.574C106.871 150.625 106.907 150.67 106.952 150.704C106.997 150.738 107.05 150.759 107.106 150.766C107.162 150.773 107.219 150.765 107.271 150.743Z" stroke="#808080" stroke-width="2"/>
<path d="M187.893 141.958C194.77 124.997 196.323 107.761 192.553 90.2484C183.65 48.8498 145.493 19.9473 102.887 21.6268C41.9594 24.0311 1.93071 85.9503 25.0613 141.724C25.0647 141.73 25.0613 141.735 25.051 141.739L24.9324 141.8C24.8499 141.838 24.7864 141.817 24.7417 141.739C-2.68303 94.5516 15.6946 34.3475 65.1725 10.4272C117.362 -14.805 180.635 12.7345 197.069 67.7778C204.327 92.086 201.569 119.039 188.506 141.249C188.338 141.535 188.144 141.778 187.924 141.979C187.886 142.013 187.876 142.006 187.893 141.958Z" fill="#454545"/>
<path d="M82.2944 178.886C93.4352 178.809 97.9491 165.602 98.6255 156.924C98.6394 156.746 98.5573 156.649 98.379 156.632C80.989 154.914 68.7577 143.569 66.3041 126.592C62.954 103.425 87.9827 87.459 106.83 80.2582C106.927 80.2206 107.012 80.1588 107.076 80.0794C107.14 79.9999 107.18 79.9058 107.192 79.8068C108.828 65.8512 115.114 30.7187 133.343 28.0107C133.884 27.932 134.793 28.2876 136.069 29.0775C147.362 36.0424 139.77 58.5068 135.807 67.4874C131.125 78.0784 122.532 86.6795 112.015 92.4545C111.848 92.5469 111.753 92.687 111.732 92.8751L109.908 109.169C109.89 109.34 109.969 109.431 110.144 109.441C119.699 109.999 126.207 114.399 129.668 122.643C132.368 129.085 131.938 137.152 128.729 143.358C124.068 152.385 115.208 156.493 105.168 156.662C104.882 156.666 104.731 156.808 104.717 157.088C104.431 162.19 103.202 167.026 101.032 171.598C96.7486 180.614 89.9278 185.83 79.2379 184.892C72.4853 184.302 66.776 179.999 66.1888 173.234C65.5911 166.274 69.1719 161.504 76.6113 161.648C81.5604 161.743 84.5226 164.253 85.4977 169.177C86.2911 173.194 85.2006 176.369 82.2263 178.701C82.0725 178.824 82.0952 178.886 82.2944 178.886ZM129.94 46.1001C119.497 49.7364 115.297 68.0002 113.976 77.2937C113.941 77.5467 114.043 77.6185 114.28 77.5091C125.091 72.5239 132.577 63.292 133.458 51.5931C133.584 49.9006 132.766 45.1154 129.94 46.1001ZM90.9082 139.291C90.0169 139.879 89.082 139.848 88.1033 139.199C83.0861 135.865 82.4255 129.028 83.6208 123.776C85.634 114.929 94.9241 109.754 103.779 109.359C103.933 109.352 104.02 109.275 104.041 109.128L106.044 94.9882C106.047 94.9687 106.044 94.9489 106.037 94.9307C106.029 94.9126 106.016 94.8968 106 94.8852C105.984 94.8736 105.965 94.8665 105.945 94.8648C105.925 94.8631 105.905 94.8667 105.887 94.8753C95.2754 99.7118 85.2827 106.902 78.2156 116.124C76.2443 118.699 75.0612 120.54 74.6663 121.648C72.0344 129.044 74.0214 136.337 79.909 141.568C85.115 146.189 92.0458 149.718 99.155 150.067C99.2308 150.07 99.3051 150.044 99.3625 149.996C99.42 149.947 99.4563 149.879 99.4643 149.805L102.751 120.325C102.769 120.167 102.697 120.089 102.537 120.089C100.681 120.089 99.2161 120.265 98.1431 120.617C93.1783 122.263 89.0103 127.213 89.3459 132.629C89.4752 134.673 90.0379 136.744 91.034 138.84C91.1249 139.024 91.0829 139.175 90.9082 139.291ZM106.107 149.236C110.207 147.622 113.476 145.254 115.916 142.132C119.009 138.178 119.371 134.285 118.149 129.546C116.912 124.735 113.833 121.696 108.912 120.427C108.887 120.421 108.862 120.42 108.837 120.425C108.812 120.429 108.788 120.439 108.767 120.453C108.746 120.467 108.729 120.485 108.716 120.506C108.703 120.528 108.694 120.551 108.691 120.576L105.651 148.903C105.644 148.958 105.653 149.015 105.676 149.067C105.699 149.118 105.735 149.163 105.781 149.197C105.827 149.23 105.882 149.252 105.939 149.259C105.996 149.266 106.054 149.258 106.107 149.236Z" fill="black"/>
<path d="M197.461 50.168C233.864 113.622 198.621 194.339 128.303 209.684C110.006 213.674 89.9944 212.524 72.0825 206.117C9.43966 183.717 -18.17 109.391 15.4257 50.2464C15.4497 50.2046 15.4839 50.1942 15.5284 50.2151H15.5335C15.578 50.2395 15.59 50.2743 15.5694 50.3197C0.588967 86.2069 6.04622 126.623 30.8631 156.386C50.5718 180.025 79.2185 192.964 109.693 192.022C156.59 190.574 196.762 155.126 204.36 107.937C207.557 88.0635 205.201 68.7566 197.291 50.0164C197.284 49.9989 197.288 49.9954 197.301 50.0059C197.37 50.0477 197.423 50.1018 197.461 50.168Z" fill="#666666"/>
</svg>
